<svg width="20" height="18" viewBox="0 0 20 18" fill="none" xmlns="http://www.w3.org/2000/svg">
<path d="M4 11.0554H3.25H4ZM5.92063 13.3031L5.81762 14.046H5.81762L5.92063 13.3031ZM13.0794 13.3031L12.9764 12.5602H12.9764L13.0794 13.3031ZM5.97219 6.27778C5.97219 4.32944 7.55163 2.75 9.49997 2.75V1.25C6.7232 1.25 4.47219 3.50101 4.47219 6.27778H5.97219ZM5.97219 7.21768V6.27778H4.47219V7.21768H5.97219ZM4.75 11.0554C4.75 10.886 4.77634 10.7242 4.8246 10.5731L3.39569 10.1168C3.30088 10.4137 3.25 10.7293 3.25 11.0554H4.75ZM6.02364 12.5602C5.29591 12.4593 4.75 11.8251 4.75 11.0554H3.25C3.25 12.5386 4.31373 13.8374 5.81762 14.046L6.02364 12.5602ZM9.5 12.8613C8.46763 12.8613 7.12561 12.713 6.02364 12.5602L5.81762 14.046C6.93177 14.2005 8.35889 14.3613 9.5 14.3613V12.8613ZM12.9764 12.5602C11.8744 12.713 10.5324 12.8613 9.5 12.8613V14.3613C10.6411 14.3613 12.0682 14.2005 13.1824 14.046L12.9764 12.5602ZM14.25 11.0554C14.25 11.8251 13.7041 12.4593 12.9764 12.5602L13.1824 14.046C14.6863 13.8374 15.75 12.5386 15.75 11.0554H14.25ZM14.1754 10.5731C14.2237 10.7242 14.25 10.886 14.25 11.0554H15.75C15.75 10.7293 15.6991 10.4137 15.6043 10.1168L14.1754 10.5731ZM13.0277 6.27778V7.2176H14.5277V6.27778H13.0277ZM9.49997 2.75C11.4483 2.75 13.0277 4.32944 13.0277 6.27778H14.5277C14.5277 3.50101 12.2767 1.25 9.49997 1.25V2.75ZM15.6043 10.1168C15.4184 9.53474 15.0948 8.93313 14.8896 8.4873C14.6621 7.993 14.5277 7.59719 14.5277 7.2176H13.0277C13.0277 7.93835 13.282 8.58212 13.5269 9.11434C13.7942 9.69504 14.0265 10.1069 14.1754 10.5731L15.6043 10.1168ZM4.47219 7.21768C4.47219 7.59727 4.33781 7.99306 4.11036 8.48736C3.90522 8.93318 3.58155 9.53476 3.39569 10.1168L4.8246 10.5731C4.97346 10.1069 5.20582 9.69507 5.47302 9.11438C5.71791 8.58217 5.97219 7.93842 5.97219 7.21768H4.47219Z" fill="#2B3F6C"/>
<path d="M11.0278 15.2361C10.6993 15.7301 10.1377 16.0556 9.5 16.0556C8.86231 16.0556 8.30067 15.7301 7.97222 15.2361" stroke="#2B3F6C" stroke-width="1.5" stroke-linecap="round"/>
</svg>
