<svg width="190" height="62" viewBox="0 0 190 62" fill="none" xmlns="http://www.w3.org/2000/svg">
<path d="M20.67 1.59C26.65 1.59 31.005 2.89 33.735 5.49C36.5083 8.04666 37.895 11.5783 37.895 16.085C37.895 18.1217 37.5917 20.0717 36.985 21.935C36.3783 23.755 35.36 25.4017 33.93 26.875C32.5433 28.305 30.7017 29.4317 28.405 30.255C26.1083 31.0783 23.27 31.49 19.89 31.49H15.665V48H5.85V1.59H20.67ZM20.15 9.65H15.665V23.43H18.915C20.7783 23.43 22.3817 23.1917 23.725 22.715C25.0683 22.2383 26.1083 21.48 26.845 20.44C27.5817 19.4 27.95 18.0567 27.95 16.41C27.95 14.1133 27.3217 12.4233 26.065 11.34C24.8083 10.2133 22.8367 9.65 20.15 9.65ZM57.2063 39.5894C57.7776 39.5894 58.3172 39.7057 58.825 39.9385C59.354 40.1501 59.8089 40.4463 60.1897 40.8271C60.5706 41.208 60.8668 41.6629 61.0784 42.1919C61.3112 42.6997 61.4275 43.2393 61.4275 43.8105C61.4275 44.3818 61.3112 44.932 61.0784 45.4609C60.8668 45.9688 60.5706 46.4131 60.1897 46.7939C59.8089 47.1748 59.354 47.4816 58.825 47.7144C58.3172 47.9259 57.7776 48.0317 57.2063 48.0317C56.6351 48.0317 56.0849 47.9259 55.556 47.7144C55.0481 47.4816 54.6038 47.1748 54.2229 46.7939C53.8421 46.4131 53.5353 45.9688 53.3025 45.4609C53.091 44.932 52.9852 44.3818 52.9852 43.8105C52.9852 43.2393 53.091 42.6997 53.3025 42.1919C53.5353 41.6629 53.8421 41.208 54.2229 40.8271C54.6038 40.4463 55.0481 40.1501 55.556 39.9385C56.0849 39.7057 56.6351 39.5894 57.2063 39.5894ZM119.536 24.73C119.536 28.3267 119.081 31.5983 118.171 34.545C117.304 37.4483 115.961 39.9617 114.141 42.085C112.364 44.2083 110.068 45.8333 107.251 46.96C104.478 48.0867 101.206 48.65 97.436 48.65C93.666 48.65 90.3727 48.0867 87.556 46.96C84.7827 45.79 82.486 44.165 80.666 42.085C78.8894 39.9617 77.546 37.4267 76.636 34.48C75.7694 31.5333 75.336 28.2617 75.336 24.665C75.336 19.855 76.116 15.6733 77.676 12.12C79.2794 8.56667 81.706 5.815 84.956 3.865C88.2494 1.87167 92.431 0.874998 97.501 0.874998C102.528 0.874998 106.666 1.87167 109.916 3.865C113.166 5.815 115.571 8.58833 117.131 12.185C118.734 15.7383 119.536 19.92 119.536 24.73ZM85.671 24.73C85.671 27.98 86.0827 30.775 86.906 33.115C87.7294 35.455 89.0077 37.2533 90.741 38.51C92.4744 39.7667 94.706 40.395 97.436 40.395C100.253 40.395 102.506 39.7667 104.196 38.51C105.929 37.2533 107.186 35.455 107.966 33.115C108.789 30.775 109.201 27.98 109.201 24.73C109.201 19.8333 108.291 15.9983 106.471 13.225C104.651 10.4517 101.661 9.065 97.501 9.065C94.7277 9.065 92.4744 9.69333 90.741 10.95C89.0077 12.2067 87.7294 14.005 86.906 16.345C86.0827 18.685 85.671 21.48 85.671 24.73ZM139.69 39.5894C140.262 39.5894 140.801 39.7057 141.309 39.9385C141.838 40.1501 142.293 40.4463 142.674 40.8271C143.055 41.208 143.351 41.6629 143.562 42.1919C143.795 42.6997 143.912 43.2393 143.912 43.8105C143.912 44.3818 143.795 44.932 143.562 45.4609C143.351 45.9688 143.055 46.4131 142.674 46.7939C142.293 47.1748 141.838 47.4816 141.309 47.7144C140.801 47.9259 140.262 48.0317 139.69 48.0317C139.119 48.0317 138.569 47.9259 138.04 47.7144C137.532 47.4816 137.088 47.1748 136.707 46.7939C136.326 46.4131 136.019 45.9688 135.787 45.4609C135.575 44.932 135.469 44.3818 135.469 43.8105C135.469 43.2393 135.575 42.6997 135.787 42.1919C136.019 41.6629 136.326 41.208 136.707 40.8271C137.088 40.4463 137.532 40.1501 138.04 39.9385C138.569 39.7057 139.119 39.5894 139.69 39.5894ZM159.9 48V1.59H169.715V39.875H188.565V48H159.9ZM2.288 54.288C3.03467 54.288 3.57867 54.4347 3.92 54.728C4.26133 55.0213 4.432 55.4347 4.432 55.968C4.432 56.2027 4.392 56.4293 4.312 56.648C4.23733 56.8613 4.112 57.0533 3.936 57.224C3.76 57.3947 3.52533 57.5307 3.232 57.632C2.93867 57.728 2.57867 57.776 2.152 57.776H1.496V60H0.776V54.288H2.288ZM2.224 54.904H1.496V57.16H2.072C2.43467 57.16 2.736 57.1227 2.976 57.048C3.216 56.968 3.39467 56.8427 3.512 56.672C3.62933 56.5013 3.688 56.2773 3.688 56C3.688 55.632 3.57067 55.3573 3.336 55.176C3.10133 54.9947 2.73067 54.904 2.224 54.904ZM10.8678 55.64C11.3904 55.64 11.7771 55.7547 12.0278 55.984C12.2784 56.2133 12.4038 56.5787 12.4038 57.08V60H11.8918L11.7558 59.392H11.7238C11.6011 59.5467 11.4731 59.6773 11.3398 59.784C11.2118 59.8853 11.0624 59.96 10.8918 60.008C10.7264 60.056 10.5238 60.08 10.2838 60.08C10.0278 60.08 9.79575 60.0347 9.58775 59.944C9.38508 59.8533 9.22508 59.7147 9.10775 59.528C8.99042 59.336 8.93175 59.096 8.93175 58.808C8.93175 58.3813 9.09975 58.0533 9.43575 57.824C9.77175 57.5893 10.2891 57.4613 10.9878 57.44L11.7158 57.416V57.16C11.7158 56.8027 11.6384 56.5547 11.4838 56.416C11.3291 56.2773 11.1104 56.208 10.8278 56.208C10.6038 56.208 10.3904 56.2427 10.1878 56.312C9.98508 56.376 9.79575 56.4507 9.61975 56.536L9.40375 56.008C9.59042 55.9067 9.81175 55.8213 10.0678 55.752C10.3238 55.6773 10.5904 55.64 10.8678 55.64ZM11.0758 57.928C10.5424 57.9493 10.1718 58.0347 9.96375 58.184C9.76108 58.3333 9.65975 58.544 9.65975 58.816C9.65975 59.056 9.73175 59.232 9.87575 59.344C10.0251 59.456 10.2144 59.512 10.4438 59.512C10.8064 59.512 11.1078 59.4133 11.3478 59.216C11.5878 59.0133 11.7078 58.704 11.7078 58.288V57.904L11.0758 57.928ZM16.7761 55.712H17.5281L18.4561 58.152C18.5095 58.296 18.5575 58.4347 18.6001 58.568C18.6481 58.7013 18.6908 58.832 18.7281 58.96C18.7655 59.0827 18.7948 59.2027 18.8161 59.32H18.8481C18.8801 59.1867 18.9308 59.0133 19.0001 58.8C19.0695 58.5813 19.1415 58.3627 19.2161 58.144L20.0881 55.712H20.8481L19.0001 60.592C18.8988 60.8587 18.7788 61.0907 18.6401 61.288C18.5068 61.4907 18.3415 61.6453 18.1441 61.752C17.9521 61.864 17.7175 61.92 17.4401 61.92C17.3121 61.92 17.2001 61.912 17.1041 61.896C17.0081 61.8853 16.9255 61.872 16.8561 61.856V61.296C16.9148 61.3067 16.9841 61.3173 17.0641 61.328C17.1495 61.3387 17.2375 61.344 17.3281 61.344C17.4935 61.344 17.6348 61.312 17.7521 61.248C17.8748 61.1893 17.9788 61.1013 18.0641 60.984C18.1495 60.872 18.2215 60.7387 18.2801 60.584L18.5041 60.016L16.7761 55.712ZM29.9503 55.632C30.4356 55.632 30.7983 55.7573 31.0382 56.008C31.2783 56.2533 31.3983 56.6533 31.3983 57.208V60H30.7023V57.24C30.7023 56.904 30.6302 56.6507 30.4862 56.48C30.3476 56.3093 30.1289 56.224 29.8303 56.224C29.4143 56.224 29.1156 56.344 28.9342 56.584C28.7582 56.824 28.6702 57.1733 28.6702 57.632V60H27.9743V57.24C27.9743 57.016 27.9423 56.8293 27.8783 56.68C27.8142 56.5253 27.7182 56.4107 27.5903 56.336C27.4622 56.2613 27.2969 56.224 27.0942 56.224C26.8063 56.224 26.5796 56.2853 26.4142 56.408C26.2489 56.5253 26.1289 56.6987 26.0542 56.928C25.9849 57.1573 25.9502 57.44 25.9502 57.776V60H25.2462V55.712H25.8142L25.9182 56.296H25.9582C26.0489 56.1467 26.1582 56.024 26.2862 55.928C26.4196 55.8267 26.5662 55.752 26.7262 55.704C26.8862 55.656 27.0516 55.632 27.2222 55.632C27.5529 55.632 27.8276 55.6907 28.0463 55.808C28.2703 55.9253 28.4329 56.1067 28.5343 56.352H28.5743C28.7182 56.1067 28.9129 55.9253 29.1582 55.808C29.4089 55.6907 29.6729 55.632 29.9503 55.632ZM38.0988 55.632C38.4668 55.632 38.7815 55.712 39.0428 55.872C39.3095 56.032 39.5121 56.2587 39.6508 56.552C39.7948 56.84 39.8668 57.1787 39.8668 57.568V57.992H36.9308C36.9415 58.4773 37.0641 58.848 37.2988 59.104C37.5388 59.3547 37.8721 59.48 38.2988 59.48C38.5708 59.48 38.8108 59.456 39.0188 59.408C39.2321 59.3547 39.4508 59.28 39.6748 59.184V59.8C39.4561 59.896 39.2401 59.9653 39.0268 60.008C38.8135 60.056 38.5601 60.08 38.2668 60.08C37.8615 60.08 37.5015 59.9973 37.1868 59.832C36.8775 59.6667 36.6348 59.4213 36.4588 59.096C36.2881 58.7653 36.2028 58.3627 36.2028 57.888C36.2028 57.4187 36.2801 57.016 36.4348 56.68C36.5948 56.344 36.8161 56.0853 37.0988 55.904C37.3868 55.7227 37.7201 55.632 38.0988 55.632ZM38.0908 56.208C37.7548 56.208 37.4881 56.3173 37.2908 56.536C37.0988 56.7493 36.9841 57.048 36.9468 57.432H39.1308C39.1308 57.1867 39.0935 56.9733 39.0188 56.792C38.9441 56.6107 38.8295 56.4693 38.6748 56.368C38.5255 56.2613 38.3308 56.208 38.0908 56.208ZM46.7424 55.632C47.2544 55.632 47.6411 55.7573 47.9024 56.008C48.1638 56.2533 48.2944 56.6533 48.2944 57.208V60H47.5984V57.256C47.5984 56.9093 47.5211 56.6507 47.3664 56.48C47.2118 56.3093 46.9691 56.224 46.6384 56.224C46.1638 56.224 45.8358 56.3573 45.6544 56.624C45.4731 56.8907 45.3824 57.2747 45.3824 57.776V60H44.6784V55.712H45.2464L45.3504 56.296H45.3904C45.4864 56.1467 45.6038 56.024 45.7424 55.928C45.8864 55.8267 46.0438 55.752 46.2144 55.704C46.3851 55.656 46.5611 55.632 46.7424 55.632ZM54.7757 59.504C54.8824 59.504 54.9917 59.496 55.1037 59.48C55.2157 59.4587 55.3064 59.4373 55.3757 59.416V59.952C55.3011 59.9893 55.1944 60.0187 55.0557 60.04C54.9171 60.0667 54.7837 60.08 54.6557 60.08C54.4317 60.08 54.2237 60.0427 54.0317 59.968C53.8451 59.888 53.6931 59.752 53.5757 59.56C53.4584 59.368 53.3997 59.0987 53.3997 58.752V56.256H52.7917V55.92L53.4077 55.64L53.6877 54.728H54.1037V55.712H55.3437V56.256H54.1037V58.736C54.1037 58.9973 54.1651 59.192 54.2877 59.32C54.4157 59.4427 54.5784 59.504 54.7757 59.504ZM66.3315 55.712V60H65.6275V55.712H66.3315ZM65.9875 54.104C66.0942 54.104 66.1875 54.1413 66.2675 54.216C66.3528 54.2853 66.3955 54.3973 66.3955 54.552C66.3955 54.7013 66.3528 54.8133 66.2675 54.888C66.1875 54.9627 66.0942 55 65.9875 55C65.8702 55 65.7715 54.9627 65.6915 54.888C65.6115 54.8133 65.5715 54.7013 65.5715 54.552C65.5715 54.3973 65.6115 54.2853 65.6915 54.216C65.7715 54.1413 65.8702 54.104 65.9875 54.104ZM73.474 55.632C73.986 55.632 74.3727 55.7573 74.634 56.008C74.8953 56.2533 75.026 56.6533 75.026 57.208V60H74.33V57.256C74.33 56.9093 74.2527 56.6507 74.098 56.48C73.9433 56.3093 73.7007 56.224 73.37 56.224C72.8953 56.224 72.5673 56.3573 72.386 56.624C72.2047 56.8907 72.114 57.2747 72.114 57.776V60H71.41V55.712H71.978L72.082 56.296H72.122C72.218 56.1467 72.3353 56.024 72.474 55.928C72.618 55.8267 72.7753 55.752 72.946 55.704C73.1167 55.656 73.2927 55.632 73.474 55.632ZM90.4524 55.632C90.9378 55.632 91.3004 55.7573 91.5404 56.008C91.7804 56.2533 91.9004 56.6533 91.9004 57.208V60H91.2044V57.24C91.2044 56.904 91.1324 56.6507 90.9884 56.48C90.8498 56.3093 90.6311 56.224 90.3324 56.224C89.9164 56.224 89.6178 56.344 89.4364 56.584C89.2604 56.824 89.1724 57.1733 89.1724 57.632V60H88.4764V57.24C88.4764 57.016 88.4444 56.8293 88.3804 56.68C88.3164 56.5253 88.2204 56.4107 88.0924 56.336C87.9644 56.2613 87.7991 56.224 87.5964 56.224C87.3084 56.224 87.0818 56.2853 86.9164 56.408C86.7511 56.5253 86.6311 56.6987 86.5564 56.928C86.4871 57.1573 86.4524 57.44 86.4524 57.776V60H85.7484V55.712H86.3164L86.4204 56.296H86.4604C86.5511 56.1467 86.6604 56.024 86.7884 55.928C86.9218 55.8267 87.0684 55.752 87.2284 55.704C87.3884 55.656 87.5538 55.632 87.7244 55.632C88.0551 55.632 88.3298 55.6907 88.5484 55.808C88.7724 55.9253 88.9351 56.1067 89.0364 56.352H89.0764C89.2204 56.1067 89.4151 55.9253 89.6604 55.808C89.9111 55.6907 90.1751 55.632 90.4524 55.632ZM100.673 57.848C100.673 58.2053 100.625 58.5227 100.529 58.8C100.438 59.072 100.305 59.304 100.129 59.496C99.9583 59.688 99.7477 59.8347 99.497 59.936C99.2517 60.032 98.977 60.08 98.673 60.08C98.3903 60.08 98.129 60.032 97.889 59.936C97.649 59.8347 97.441 59.688 97.265 59.496C97.089 59.304 96.9503 59.072 96.849 58.8C96.753 58.5227 96.705 58.2053 96.705 57.848C96.705 57.3733 96.785 56.9733 96.945 56.648C97.105 56.3173 97.3343 56.0667 97.633 55.896C97.9317 55.72 98.2863 55.632 98.697 55.632C99.0863 55.632 99.4277 55.72 99.721 55.896C100.02 56.0667 100.252 56.3173 100.417 56.648C100.588 56.9733 100.673 57.3733 100.673 57.848ZM97.433 57.848C97.433 58.184 97.4757 58.4773 97.561 58.728C97.6517 58.9733 97.7903 59.1627 97.977 59.296C98.1637 59.4293 98.401 59.496 98.689 59.496C98.977 59.496 99.2143 59.4293 99.401 59.296C99.5877 59.1627 99.7237 58.9733 99.809 58.728C99.8997 58.4773 99.945 58.184 99.945 57.848C99.945 57.5067 99.8997 57.216 99.809 56.976C99.7183 56.736 99.5797 56.552 99.393 56.424C99.2117 56.2907 98.9743 56.224 98.681 56.224C98.2437 56.224 97.9263 56.368 97.729 56.656C97.5317 56.944 97.433 57.3413 97.433 57.848ZM110.213 55.632C110.698 55.632 111.061 55.7573 111.301 56.008C111.541 56.2533 111.661 56.6533 111.661 57.208V60H110.965V57.24C110.965 56.904 110.893 56.6507 110.749 56.48C110.61 56.3093 110.391 56.224 110.093 56.224C109.677 56.224 109.378 56.344 109.197 56.584C109.021 56.824 108.933 57.1733 108.933 57.632V60H108.237V57.24C108.237 57.016 108.205 56.8293 108.141 56.68C108.077 56.5253 107.981 56.4107 107.853 56.336C107.725 56.2613 107.559 56.224 107.357 56.224C107.069 56.224 106.842 56.2853 106.677 56.408C106.511 56.5253 106.391 56.6987 106.317 56.928C106.247 57.1573 106.213 57.44 106.213 57.776V60H105.509V55.712H106.077L106.181 56.296H106.221C106.311 56.1467 106.421 56.024 106.549 55.928C106.682 55.8267 106.829 55.752 106.989 55.704C107.149 55.656 107.314 55.632 107.485 55.632C107.815 55.632 108.09 55.6907 108.309 55.808C108.533 55.9253 108.695 56.1067 108.797 56.352H108.837C108.981 56.1067 109.175 55.9253 109.421 55.808C109.671 55.6907 109.935 55.632 110.213 55.632ZM118.361 55.632C118.729 55.632 119.044 55.712 119.305 55.872C119.572 56.032 119.775 56.2587 119.913 56.552C120.057 56.84 120.129 57.1787 120.129 57.568V57.992H117.193C117.204 58.4773 117.327 58.848 117.561 59.104C117.801 59.3547 118.135 59.48 118.561 59.48C118.833 59.48 119.073 59.456 119.281 59.408C119.495 59.3547 119.713 59.28 119.937 59.184V59.8C119.719 59.896 119.503 59.9653 119.289 60.008C119.076 60.056 118.823 60.08 118.529 60.08C118.124 60.08 117.764 59.9973 117.449 59.832C117.14 59.6667 116.897 59.4213 116.721 59.096C116.551 58.7653 116.465 58.3627 116.465 57.888C116.465 57.4187 116.543 57.016 116.697 56.68C116.857 56.344 117.079 56.0853 117.361 55.904C117.649 55.7227 117.983 55.632 118.361 55.632ZM118.353 56.208C118.017 56.208 117.751 56.3173 117.553 56.536C117.361 56.7493 117.247 57.048 117.209 57.432H119.393C119.393 57.1867 119.356 56.9733 119.281 56.792C119.207 56.6107 119.092 56.4693 118.937 56.368C118.788 56.2613 118.593 56.208 118.353 56.208ZM127.005 55.632C127.517 55.632 127.904 55.7573 128.165 56.008C128.426 56.2533 128.557 56.6533 128.557 57.208V60H127.861V57.256C127.861 56.9093 127.784 56.6507 127.629 56.48C127.474 56.3093 127.232 56.224 126.901 56.224C126.426 56.224 126.098 56.3573 125.917 56.624C125.736 56.8907 125.645 57.2747 125.645 57.776V60H124.941V55.712H125.509L125.613 56.296H125.653C125.749 56.1467 125.866 56.024 126.005 55.928C126.149 55.8267 126.306 55.752 126.477 55.704C126.648 55.656 126.824 55.632 127.005 55.632ZM135.038 59.504C135.145 59.504 135.254 59.496 135.366 59.48C135.478 59.4587 135.569 59.4373 135.638 59.416V59.952C135.564 59.9893 135.457 60.0187 135.318 60.04C135.18 60.0667 135.046 60.08 134.918 60.08C134.694 60.08 134.486 60.0427 134.294 59.968C134.108 59.888 133.956 59.752 133.838 59.56C133.721 59.368 133.662 59.0987 133.662 58.752V56.256H133.054V55.92L133.67 55.64L133.95 54.728H134.366V55.712H135.606V56.256H134.366V58.736C134.366 58.9973 134.428 59.192 134.55 59.32C134.678 59.4427 134.841 59.504 135.038 59.504ZM148.682 58.816C148.682 59.0933 148.613 59.3253 148.474 59.512C148.335 59.6987 148.138 59.84 147.882 59.936C147.626 60.032 147.322 60.08 146.97 60.08C146.671 60.08 146.413 60.056 146.194 60.008C145.981 59.96 145.791 59.8933 145.626 59.808V59.168C145.797 59.2533 146.002 59.3333 146.242 59.408C146.487 59.4773 146.735 59.512 146.986 59.512C147.343 59.512 147.602 59.456 147.762 59.344C147.922 59.2267 148.002 59.072 148.002 58.88C148.002 58.7733 147.973 58.6773 147.914 58.592C147.855 58.5067 147.749 58.4213 147.594 58.336C147.445 58.2507 147.229 58.1547 146.946 58.048C146.669 57.9413 146.431 57.8347 146.234 57.728C146.037 57.6213 145.885 57.4933 145.778 57.344C145.671 57.1947 145.618 57.0027 145.618 56.768C145.618 56.4053 145.765 56.1253 146.058 55.928C146.357 55.7307 146.746 55.632 147.226 55.632C147.487 55.632 147.73 55.6587 147.954 55.712C148.183 55.76 148.397 55.8293 148.594 55.92L148.354 56.48C148.237 56.4267 148.111 56.3813 147.978 56.344C147.85 56.3013 147.719 56.2693 147.586 56.248C147.453 56.2213 147.317 56.208 147.178 56.208C146.89 56.208 146.669 56.256 146.514 56.352C146.365 56.4427 146.29 56.568 146.29 56.728C146.29 56.8453 146.325 56.9467 146.394 57.032C146.463 57.112 146.578 57.192 146.738 57.272C146.903 57.3467 147.122 57.4373 147.394 57.544C147.666 57.6453 147.898 57.7493 148.09 57.856C148.282 57.9627 148.429 58.0933 148.53 58.248C148.631 58.3973 148.682 58.5867 148.682 58.816ZM152.766 55.712H153.518L154.446 58.152C154.499 58.296 154.547 58.4347 154.59 58.568C154.638 58.7013 154.681 58.832 154.718 58.96C154.755 59.0827 154.785 59.2027 154.806 59.32H154.838C154.87 59.1867 154.921 59.0133 154.99 58.8C155.059 58.5813 155.131 58.3627 155.206 58.144L156.078 55.712H156.838L154.99 60.592C154.889 60.8587 154.769 61.0907 154.63 61.288C154.497 61.4907 154.331 61.6453 154.134 61.752C153.942 61.864 153.707 61.92 153.43 61.92C153.302 61.92 153.19 61.912 153.094 61.896C152.998 61.8853 152.915 61.872 152.846 61.856V61.296C152.905 61.3067 152.974 61.3173 153.054 61.328C153.139 61.3387 153.227 61.344 153.318 61.344C153.483 61.344 153.625 61.312 153.742 61.248C153.865 61.1893 153.969 61.1013 154.054 60.984C154.139 60.872 154.211 60.7387 154.27 60.584L154.494 60.016L152.766 55.712ZM164.028 58.816C164.028 59.0933 163.959 59.3253 163.82 59.512C163.682 59.6987 163.484 59.84 163.228 59.936C162.972 60.032 162.668 60.08 162.316 60.08C162.018 60.08 161.759 60.056 161.54 60.008C161.327 59.96 161.138 59.8933 160.972 59.808V59.168C161.143 59.2533 161.348 59.3333 161.588 59.408C161.834 59.4773 162.082 59.512 162.332 59.512C162.69 59.512 162.948 59.456 163.108 59.344C163.268 59.2267 163.348 59.072 163.348 58.88C163.348 58.7733 163.319 58.6773 163.26 58.592C163.202 58.5067 163.095 58.4213 162.94 58.336C162.791 58.2507 162.575 58.1547 162.292 58.048C162.015 57.9413 161.778 57.8347 161.58 57.728C161.383 57.6213 161.231 57.4933 161.124 57.344C161.018 57.1947 160.964 57.0027 160.964 56.768C160.964 56.4053 161.111 56.1253 161.404 55.928C161.703 55.7307 162.092 55.632 162.572 55.632C162.834 55.632 163.076 55.6587 163.3 55.712C163.53 55.76 163.743 55.8293 163.94 55.92L163.7 56.48C163.583 56.4267 163.458 56.3813 163.324 56.344C163.196 56.3013 163.066 56.2693 162.932 56.248C162.799 56.2213 162.663 56.208 162.524 56.208C162.236 56.208 162.015 56.256 161.86 56.352C161.711 56.4427 161.636 56.568 161.636 56.728C161.636 56.8453 161.671 56.9467 161.74 57.032C161.81 57.112 161.924 57.192 162.084 57.272C162.25 57.3467 162.468 57.4373 162.74 57.544C163.012 57.6453 163.244 57.7493 163.436 57.856C163.628 57.9627 163.775 58.0933 163.876 58.248C163.978 58.3973 164.028 58.5867 164.028 58.816ZM170.216 59.504C170.323 59.504 170.432 59.496 170.544 59.48C170.656 59.4587 170.747 59.4373 170.816 59.416V59.952C170.742 59.9893 170.635 60.0187 170.496 60.04C170.358 60.0667 170.224 60.08 170.096 60.08C169.872 60.08 169.664 60.0427 169.472 59.968C169.286 59.888 169.134 59.752 169.016 59.56C168.899 59.368 168.84 59.0987 168.84 58.752V56.256H168.232V55.92L168.848 55.64L169.128 54.728H169.544V55.712H170.784V56.256H169.544V58.736C169.544 58.9973 169.606 59.192 169.728 59.32C169.856 59.4427 170.019 59.504 170.216 59.504ZM177.051 55.632C177.419 55.632 177.734 55.712 177.995 55.872C178.262 56.032 178.464 56.2587 178.603 56.552C178.747 56.84 178.819 57.1787 178.819 57.568V57.992H175.883C175.894 58.4773 176.016 58.848 176.251 59.104C176.491 59.3547 176.824 59.48 177.251 59.48C177.523 59.48 177.763 59.456 177.971 59.408C178.184 59.3547 178.403 59.28 178.627 59.184V59.8C178.408 59.896 178.192 59.9653 177.979 60.008C177.766 60.056 177.512 60.08 177.219 60.08C176.814 60.08 176.454 59.9973 176.139 59.832C175.83 59.6667 175.587 59.4213 175.411 59.096C175.24 58.7653 175.155 58.3627 175.155 57.888C175.155 57.4187 175.232 57.016 175.387 56.68C175.547 56.344 175.768 56.0853 176.051 55.904C176.339 55.7227 176.672 55.632 177.051 55.632ZM177.043 56.208C176.707 56.208 176.44 56.3173 176.243 56.536C176.051 56.7493 175.936 57.048 175.899 57.432H178.083C178.083 57.1867 178.046 56.9733 177.971 56.792C177.896 56.6107 177.782 56.4693 177.627 56.368C177.478 56.2613 177.283 56.208 177.043 56.208ZM188.335 55.632C188.82 55.632 189.183 55.7573 189.423 56.008C189.663 56.2533 189.783 56.6533 189.783 57.208V60H189.087V57.24C189.087 56.904 189.015 56.6507 188.871 56.48C188.732 56.3093 188.513 56.224 188.215 56.224C187.799 56.224 187.5 56.344 187.319 56.584C187.143 56.824 187.055 57.1733 187.055 57.632V60H186.359V57.24C186.359 57.016 186.327 56.8293 186.263 56.68C186.199 56.5253 186.103 56.4107 185.975 56.336C185.847 56.2613 185.681 56.224 185.479 56.224C185.191 56.224 184.964 56.2853 184.799 56.408C184.633 56.5253 184.513 56.6987 184.439 56.928C184.369 57.1573 184.335 57.44 184.335 57.776V60H183.631V55.712H184.199L184.303 56.296H184.343C184.433 56.1467 184.543 56.024 184.671 55.928C184.804 55.8267 184.951 55.752 185.111 55.704C185.271 55.656 185.436 55.632 185.607 55.632C185.937 55.632 186.212 55.6907 186.431 55.808C186.655 55.9253 186.817 56.1067 186.919 56.352H186.959C187.103 56.1067 187.297 55.9253 187.543 55.808C187.793 55.6907 188.057 55.632 188.335 55.632Z" fill="#0C99FF"/>
</svg>
