<svg width="191" height="61" viewBox="0 0 191 61" fill="none" xmlns="http://www.w3.org/2000/svg">
<path d="M20.67 0.589997C26.65 0.589997 31.005 1.89 33.735 4.49C36.5083 7.04666 37.895 10.5783 37.895 15.085C37.895 17.1217 37.5917 19.0717 36.985 20.935C36.3783 22.755 35.36 24.4017 33.93 25.875C32.5433 27.305 30.7017 28.4317 28.405 29.255C26.1083 30.0783 23.27 30.49 19.89 30.49H15.665V47H5.85V0.589997H20.67ZM20.15 8.65H15.665V22.43H18.915C20.7783 22.43 22.3817 22.1917 23.725 21.715C25.0683 21.2383 26.1083 20.48 26.845 19.44C27.5817 18.4 27.95 17.0567 27.95 15.41C27.95 13.1133 27.3217 11.4233 26.065 10.34C24.8083 9.21333 22.8367 8.65 20.15 8.65ZM81.9081 47L78.5281 35.95H61.6281L58.2481 47H47.6531L64.0331 0.395H76.0581L92.5031 47H81.9081ZM72.8081 16.905C72.5915 16.1683 72.3098 15.2367 71.9631 14.11C71.6165 12.9833 71.2698 11.835 70.9231 10.665C70.5765 9.495 70.2948 8.47667 70.0781 7.61C69.8615 8.47667 69.5581 9.56 69.1681 10.86C68.8215 12.1167 68.4748 13.33 68.1281 14.5C67.8248 15.6267 67.5865 16.4283 67.4131 16.905L64.0981 27.695H76.1881L72.8081 16.905ZM119.014 19.7L128.699 0.589997H139.294L123.889 28.93V47H114.139V29.255L98.734 0.589997H109.394L119.014 19.7ZM179.753 47L176.373 35.95H159.473L156.093 47H145.498L161.878 0.395H173.903L190.348 47H179.753ZM170.653 16.905C170.437 16.1683 170.155 15.2367 169.808 14.11C169.462 12.9833 169.115 11.835 168.768 10.665C168.422 9.495 168.14 8.47667 167.923 7.61C167.707 8.47667 167.403 9.56 167.013 10.86C166.667 12.1167 166.32 13.33 165.973 14.5C165.67 15.6267 165.432 16.4283 165.258 16.905L161.943 27.695H174.033L170.653 16.905ZM0.776 59V53.288H1.496V58.36H3.992V59H0.776ZM12.3233 56.848C12.3233 57.2053 12.2753 57.5227 12.1793 57.8C12.0886 58.072 11.9553 58.304 11.7793 58.496C11.6086 58.688 11.398 58.8347 11.1473 58.936C10.902 59.032 10.6273 59.08 10.3233 59.08C10.0406 59.08 9.77931 59.032 9.53931 58.936C9.29931 58.8347 9.09131 58.688 8.91531 58.496C8.73931 58.304 8.60065 58.072 8.49931 57.8C8.40331 57.5227 8.35531 57.2053 8.35531 56.848C8.35531 56.3733 8.43531 55.9733 8.59531 55.648C8.75531 55.3173 8.98465 55.0667 9.28331 54.896C9.58198 54.72 9.93665 54.632 10.3473 54.632C10.7366 54.632 11.078 54.72 11.3713 54.896C11.67 55.0667 11.902 55.3173 12.0673 55.648C12.238 55.9733 12.3233 56.3733 12.3233 56.848ZM9.08331 56.848C9.08331 57.184 9.12598 57.4773 9.21131 57.728C9.30198 57.9733 9.44065 58.1627 9.62731 58.296C9.81398 58.4293 10.0513 58.496 10.3393 58.496C10.6273 58.496 10.8646 58.4293 11.0513 58.296C11.238 58.1627 11.374 57.9733 11.4593 57.728C11.55 57.4773 11.5953 57.184 11.5953 56.848C11.5953 56.5067 11.55 56.216 11.4593 55.976C11.3686 55.736 11.23 55.552 11.0433 55.424C10.862 55.2907 10.6246 55.224 10.3313 55.224C9.89398 55.224 9.57665 55.368 9.37931 55.656C9.18198 55.944 9.08331 56.3413 9.08331 56.848ZM19.1591 54.632C19.2391 54.632 19.3244 54.6373 19.4151 54.648C19.5111 54.6533 19.5937 54.664 19.6631 54.68L19.5751 55.328C19.5057 55.312 19.4284 55.2987 19.3431 55.288C19.2631 55.2773 19.1857 55.272 19.1111 55.272C18.9457 55.272 18.7884 55.3067 18.6391 55.376C18.4897 55.4453 18.3564 55.544 18.2391 55.672C18.1217 55.7947 18.0284 55.944 17.9591 56.12C17.8951 56.296 17.8631 56.4933 17.8631 56.712V59H17.1591V54.712H17.7351L17.8151 55.496H17.8471C17.9377 55.336 18.0471 55.192 18.1751 55.064C18.3031 54.9307 18.4497 54.8267 18.6151 54.752C18.7804 54.672 18.9617 54.632 19.1591 54.632ZM28.8878 54.632C29.3731 54.632 29.7358 54.7573 29.9757 55.008C30.2158 55.2533 30.3358 55.6533 30.3358 56.208V59H29.6398V56.24C29.6398 55.904 29.5677 55.6507 29.4237 55.48C29.2851 55.3093 29.0664 55.224 28.7678 55.224C28.3518 55.224 28.0531 55.344 27.8717 55.584C27.6957 55.824 27.6077 56.1733 27.6077 56.632V59H26.9118V56.24C26.9118 56.016 26.8798 55.8293 26.8158 55.68C26.7517 55.5253 26.6557 55.4107 26.5278 55.336C26.3997 55.2613 26.2344 55.224 26.0317 55.224C25.7438 55.224 25.5171 55.2853 25.3517 55.408C25.1864 55.5253 25.0664 55.6987 24.9917 55.928C24.9224 56.1573 24.8877 56.44 24.8877 56.776V59H24.1837V54.712H24.7517L24.8557 55.296H24.8957C24.9864 55.1467 25.0957 55.024 25.2237 54.928C25.3571 54.8267 25.5037 54.752 25.6637 54.704C25.8237 54.656 25.9891 54.632 26.1597 54.632C26.4904 54.632 26.7651 54.6907 26.9838 54.808C27.2078 54.9253 27.3704 55.1067 27.4718 55.352H27.5118C27.6557 55.1067 27.8504 54.9253 28.0957 54.808C28.3464 54.6907 28.6104 54.632 28.8878 54.632ZM41.7574 54.712V59H41.0534V54.712H41.7574ZM41.4134 53.104C41.5201 53.104 41.6134 53.1413 41.6934 53.216C41.7788 53.2853 41.8214 53.3973 41.8214 53.552C41.8214 53.7013 41.7788 53.8133 41.6934 53.888C41.6134 53.9627 41.5201 54 41.4134 54C41.2961 54 41.1974 53.9627 41.1174 53.888C41.0374 53.8133 40.9974 53.7013 40.9974 53.552C40.9974 53.3973 41.0374 53.2853 41.1174 53.216C41.1974 53.1413 41.2961 53.104 41.4134 53.104ZM48.8759 54.632C49.4039 54.632 49.8279 54.816 50.1479 55.184C50.4733 55.552 50.6359 56.1067 50.6359 56.848C50.6359 57.3333 50.5613 57.744 50.4119 58.08C50.2679 58.4107 50.0626 58.6613 49.7959 58.832C49.5346 58.9973 49.2253 59.08 48.8679 59.08C48.6493 59.08 48.4546 59.0507 48.2839 58.992C48.1133 58.9333 47.9666 58.8587 47.8439 58.768C47.7266 58.672 47.6253 58.568 47.5399 58.456H47.4919C47.5026 58.5467 47.5133 58.6613 47.5239 58.8C47.5346 58.9387 47.5399 59.0587 47.5399 59.16V60.92H46.8359V54.712H47.4119L47.5079 55.296H47.5399C47.6253 55.1733 47.7266 55.0613 47.8439 54.96C47.9666 54.8587 48.1106 54.7787 48.2759 54.72C48.4466 54.6613 48.6466 54.632 48.8759 54.632ZM48.7479 55.224C48.4599 55.224 48.2279 55.28 48.0519 55.392C47.8759 55.4987 47.7479 55.6613 47.6679 55.88C47.5879 56.0987 47.5453 56.376 47.5399 56.712V56.848C47.5399 57.2 47.5773 57.4987 47.6519 57.744C47.7266 57.9893 47.8519 58.176 48.0279 58.304C48.2093 58.432 48.4546 58.496 48.7639 58.496C49.0253 58.496 49.2386 58.424 49.4039 58.28C49.5746 58.136 49.6999 57.9413 49.7799 57.696C49.8653 57.4453 49.9079 57.16 49.9079 56.84C49.9079 56.3493 49.8119 55.9573 49.6199 55.664C49.4333 55.3707 49.1426 55.224 48.7479 55.224ZM56.1818 54.712V59H55.4778V54.712H56.1818ZM55.8378 53.104C55.9445 53.104 56.0378 53.1413 56.1178 53.216C56.2031 53.2853 56.2458 53.3973 56.2458 53.552C56.2458 53.7013 56.2031 53.8133 56.1178 53.888C56.0378 53.9627 55.9445 54 55.8378 54C55.7205 54 55.6218 53.9627 55.5418 53.888C55.4618 53.8133 55.4218 53.7013 55.4218 53.552C55.4218 53.3973 55.4618 53.2853 55.5418 53.216C55.6218 53.1413 55.7205 53.104 55.8378 53.104ZM64.0523 57.816C64.0523 58.0933 63.983 58.3253 63.8443 58.512C63.7056 58.6987 63.5083 58.84 63.2523 58.936C62.9963 59.032 62.6923 59.08 62.3403 59.08C62.0416 59.08 61.783 59.056 61.5643 59.008C61.351 58.96 61.1616 58.8933 60.9963 58.808V58.168C61.167 58.2533 61.3723 58.3333 61.6123 58.408C61.8576 58.4773 62.1056 58.512 62.3563 58.512C62.7136 58.512 62.9723 58.456 63.1323 58.344C63.2923 58.2267 63.3723 58.072 63.3723 57.88C63.3723 57.7733 63.343 57.6773 63.2843 57.592C63.2256 57.5067 63.119 57.4213 62.9643 57.336C62.815 57.2507 62.599 57.1547 62.3163 57.048C62.039 56.9413 61.8016 56.8347 61.6043 56.728C61.407 56.6213 61.255 56.4933 61.1483 56.344C61.0416 56.1947 60.9883 56.0027 60.9883 55.768C60.9883 55.4053 61.135 55.1253 61.4283 54.928C61.727 54.7307 62.1163 54.632 62.5963 54.632C62.8576 54.632 63.1003 54.6587 63.3243 54.712C63.5536 54.76 63.767 54.8293 63.9643 54.92L63.7243 55.48C63.607 55.4267 63.4816 55.3813 63.3483 55.344C63.2203 55.3013 63.0896 55.2693 62.9563 55.248C62.823 55.2213 62.687 55.208 62.5483 55.208C62.2603 55.208 62.039 55.256 61.8843 55.352C61.735 55.4427 61.6603 55.568 61.6603 55.728C61.6603 55.8453 61.695 55.9467 61.7643 56.032C61.8336 56.112 61.9483 56.192 62.1083 56.272C62.2736 56.3467 62.4923 56.4373 62.7643 56.544C63.0363 56.6453 63.2683 56.7493 63.4603 56.856C63.6523 56.9627 63.799 57.0933 63.9003 57.248C64.0016 57.3973 64.0523 57.5867 64.0523 57.816ZM72.3924 54.712V59H71.8164L71.7124 58.432H71.6804C71.5898 58.5813 71.4724 58.704 71.3284 58.8C71.1844 58.896 71.0271 58.9653 70.8564 59.008C70.6858 59.056 70.5071 59.08 70.3204 59.08C69.9791 59.08 69.6911 59.0267 69.4564 58.92C69.2271 58.808 69.0538 58.6373 68.9364 58.408C68.8191 58.1787 68.7604 57.8827 68.7604 57.52V54.712H69.4724V57.472C69.4724 57.8133 69.5498 58.0693 69.7044 58.24C69.8591 58.4107 70.0991 58.496 70.4244 58.496C70.7444 58.496 70.9951 58.4373 71.1764 58.32C71.3631 58.1973 71.4938 58.0213 71.5684 57.792C71.6484 57.5573 71.6884 57.2747 71.6884 56.944V54.712H72.3924ZM82.1777 54.632C82.6631 54.632 83.0257 54.7573 83.2657 55.008C83.5057 55.2533 83.6257 55.6533 83.6257 56.208V59H82.9297V56.24C82.9297 55.904 82.8577 55.6507 82.7137 55.48C82.5751 55.3093 82.3564 55.224 82.0577 55.224C81.6417 55.224 81.3431 55.344 81.1617 55.584C80.9857 55.824 80.8977 56.1733 80.8977 56.632V59H80.2017V56.24C80.2017 56.016 80.1697 55.8293 80.1057 55.68C80.0417 55.5253 79.9457 55.4107 79.8177 55.336C79.6897 55.2613 79.5244 55.224 79.3217 55.224C79.0337 55.224 78.8071 55.2853 78.6417 55.408C78.4764 55.5253 78.3564 55.6987 78.2817 55.928C78.2124 56.1573 78.1777 56.44 78.1777 56.776V59H77.4737V54.712H78.0417L78.1457 55.296H78.1857C78.2764 55.1467 78.3857 55.024 78.5137 54.928C78.6471 54.8267 78.7937 54.752 78.9537 54.704C79.1137 54.656 79.2791 54.632 79.4497 54.632C79.7804 54.632 80.0551 54.6907 80.2737 54.808C80.4977 54.9253 80.6604 55.1067 80.7617 55.352H80.8017C80.9457 55.1067 81.1404 54.9253 81.3857 54.808C81.6364 54.6907 81.9004 54.632 82.1777 54.632Z" fill="#FFB443"/>
</svg>
