<svg width="111" height="111" viewBox="0 0 111 111" fill="none" xmlns="http://www.w3.org/2000/svg">
<path d="M103.468 75.7193C103.347 75.4446 103.225 75.1394 103.104 74.8647H83.6068C83.7283 75.1699 83.8194 75.4751 83.9409 75.7498L103.468 75.7193Z" fill="#FF004D"/>
<path d="M82.3921 71.7822C82.4832 71.9959 82.5743 72.179 82.6351 72.3926L102.011 72.3621C101.92 72.179 101.828 71.9653 101.737 71.7822H82.3921Z" fill="#FF004D"/>
<path d="M104.501 78.2219H84.7305C85.0342 79.1986 85.186 79.7479 85.186 79.7479H105.108C105.108 79.7479 104.896 79.1986 104.501 78.2219Z" fill="#FF004D"/>
<path d="M81.3595 69.3712L100.614 69.2797C93.7502 54.6913 79.9018 29.9703 64.4741 29.482C42.5778 28.7801 29.762 42.0256 29.762 42.0256C29.762 42.0256 46.2829 31.0385 62.9557 44.5893C72.2183 52.0971 78.0492 62.1075 81.3899 69.5238L81.3595 69.3712Z" fill="#FF004D"/>
<path d="M28.0006 40.408C27.9095 40.1944 27.8183 40.0112 27.7576 39.7976L8.38196 39.8281C8.47307 40.0112 8.56417 40.2249 8.65528 40.408H28.0006Z" fill="#FF004D"/>
<path d="M6.89392 36.4709C7.0154 36.7456 7.13688 37.0508 7.25835 37.3255H26.7859C26.6644 37.0203 26.5733 36.7151 26.4518 36.4404L6.89392 36.4709Z" fill="#FF004D"/>
<path d="M25.6318 33.9684C25.3585 33.1138 25.237 32.656 25.237 32.656H5.3147C5.3147 32.656 5.49691 33.1443 5.83098 33.9684H25.6318Z" fill="#FF004D"/>
<path d="M47.4673 67.479C38.235 60.0627 32.4041 50.1743 29.0635 42.8191L9.80933 42.9107C16.6424 57.3464 30.5516 81.9453 45.9792 82.4336C67.8452 83.1356 80.0233 69.5848 80.0233 69.5848C80.0233 69.5848 64.1401 80.8771 47.4673 67.479Z" fill="#FF004D"/>
<path d="M0 94.916H18.7075C18.7075 94.916 24.174 69.31 39.8446 54.5385C55.5152 39.767 68.4829 54.508 68.4829 54.508C68.4829 54.508 58.7343 39.2787 38.2047 40.0417C17.675 40.8046 0 94.916 0 94.916Z" fill="#FF004D"/>
<path d="M110.423 15.0461H91.7155C91.7155 15.0461 86.2186 40.8047 70.5481 56.034C54.8775 71.2634 41.5757 57.0412 41.5757 57.0412C41.5757 57.0412 51.6583 72.3621 72.2184 71.5685C92.7784 70.775 110.423 15.0461 110.423 15.0461Z" fill="#FF004D"/>
</svg>
