<svg width="252" height="62" viewBox="0 0 252 62" fill="none" xmlns="http://www.w3.org/2000/svg">
<path d="M33.215 35.13C33.215 37.86 32.5433 40.2433 31.2 42.28C29.8567 44.3167 27.9067 45.8983 25.35 47.025C22.8367 48.1083 19.76 48.65 16.12 48.65C14.5167 48.65 12.935 48.5417 11.375 48.325C9.85833 48.1083 8.385 47.805 6.955 47.415C5.56833 46.9817 4.24667 46.4617 2.99 45.855V36.69C5.2 37.6433 7.475 38.5317 9.815 39.355C12.1983 40.135 14.56 40.525 16.9 40.525C18.5033 40.525 19.7817 40.3083 20.735 39.875C21.7317 39.4417 22.4467 38.8567 22.88 38.12C23.3567 37.3833 23.595 36.5383 23.595 35.585C23.595 34.415 23.1833 33.4183 22.36 32.595C21.58 31.7717 20.5183 31.0133 19.175 30.32C17.8317 29.5833 16.2933 28.8033 14.56 27.98C13.4767 27.46 12.3067 26.8533 11.05 26.16C9.79333 25.4233 8.58 24.535 7.41 23.495C6.28333 22.4117 5.35167 21.1117 4.615 19.595C3.87833 18.0783 3.51 16.2583 3.51 14.135C3.51 11.3617 4.13833 9 5.395 7.05C6.695 5.05666 8.515 3.54 10.855 2.5C13.2383 1.46 16.0333 0.939998 19.24 0.939998C21.6667 0.939998 23.9633 1.22166 26.13 1.785C28.34 2.34833 30.6367 3.15 33.02 4.19L29.835 11.86C27.7117 10.9933 25.805 10.3217 24.115 9.845C22.425 9.36833 20.6917 9.13 18.915 9.13C17.7017 9.13 16.6617 9.325 15.795 9.715C14.9283 10.105 14.2567 10.6467 13.78 11.34C13.3467 12.0333 13.13 12.8567 13.13 13.81C13.13 14.8933 13.455 15.825 14.105 16.605C14.755 17.3417 15.73 18.0567 17.03 18.75C18.33 19.4433 19.955 20.2667 21.905 21.22C24.2883 22.3467 26.3033 23.5167 27.95 24.73C29.64 25.9433 30.94 27.3733 31.85 29.02C32.76 30.6667 33.215 32.7033 33.215 35.13ZM80.1308 48L76.7508 36.95H59.8508L56.4708 48H45.8758L62.2558 1.395H74.2808L90.7258 48H80.1308ZM71.0308 17.905C70.8141 17.1683 70.5325 16.2367 70.1858 15.11C69.8391 13.9833 69.4925 12.835 69.1458 11.665C68.7991 10.495 68.5175 9.47667 68.3008 8.61C68.0841 9.47667 67.7808 10.56 67.3908 11.86C67.0441 13.1167 66.6974 14.33 66.3508 15.5C66.0475 16.6267 65.8091 17.4283 65.6358 17.905L62.3208 28.695H74.4108L71.0308 17.905ZM119.983 48H110.168V9.78H97.5584V1.59H132.593V9.78H119.983V48ZM190.97 48H178.49L158.275 12.9H158.015C158.058 13.9833 158.102 15.0883 158.145 16.215C158.188 17.2983 158.232 18.4033 158.275 19.53C158.362 20.6133 158.427 21.7183 158.47 22.845C158.513 23.9283 158.557 25.0333 158.6 26.16V48H149.825V1.59H162.24L182.39 36.365H182.585C182.542 35.2817 182.498 34.22 182.455 33.18C182.412 32.0967 182.368 31.035 182.325 29.995C182.325 28.9117 182.303 27.85 182.26 26.81C182.217 25.7267 182.173 24.6433 182.13 23.56V1.59H190.97V48ZM241.181 48L237.801 36.95H220.901L217.521 48H206.926L223.306 1.395H235.331L251.776 48H241.181ZM232.081 17.905C231.864 17.1683 231.583 16.2367 231.236 15.11C230.889 13.9833 230.543 12.835 230.196 11.665C229.849 10.495 229.568 9.47667 229.351 8.61C229.134 9.47667 228.831 10.56 228.441 11.86C228.094 13.1167 227.748 14.33 227.401 15.5C227.098 16.6267 226.859 17.4283 226.686 17.905L223.371 28.695H235.461L232.081 17.905ZM0.776 60V54.288H1.496V59.36H3.992V60H0.776ZM12.3233 57.848C12.3233 58.2053 12.2753 58.5227 12.1793 58.8C12.0886 59.072 11.9553 59.304 11.7793 59.496C11.6086 59.688 11.398 59.8347 11.1473 59.936C10.902 60.032 10.6273 60.08 10.3233 60.08C10.0406 60.08 9.77931 60.032 9.53931 59.936C9.29931 59.8347 9.09131 59.688 8.91531 59.496C8.73931 59.304 8.60065 59.072 8.49931 58.8C8.40331 58.5227 8.35531 58.2053 8.35531 57.848C8.35531 57.3733 8.43531 56.9733 8.59531 56.648C8.75531 56.3173 8.98465 56.0667 9.28331 55.896C9.58198 55.72 9.93665 55.632 10.3473 55.632C10.7366 55.632 11.078 55.72 11.3713 55.896C11.67 56.0667 11.902 56.3173 12.0673 56.648C12.238 56.9733 12.3233 57.3733 12.3233 57.848ZM9.08331 57.848C9.08331 58.184 9.12598 58.4773 9.21131 58.728C9.30198 58.9733 9.44065 59.1627 9.62731 59.296C9.81398 59.4293 10.0513 59.496 10.3393 59.496C10.6273 59.496 10.8646 59.4293 11.0513 59.296C11.238 59.1627 11.374 58.9733 11.4593 58.728C11.55 58.4773 11.5953 58.184 11.5953 57.848C11.5953 57.5067 11.55 57.216 11.4593 56.976C11.3686 56.736 11.23 56.552 11.0433 56.424C10.862 56.2907 10.6246 56.224 10.3313 56.224C9.89398 56.224 9.57665 56.368 9.37931 56.656C9.18198 56.944 9.08331 57.3413 9.08331 57.848ZM19.1591 55.632C19.2391 55.632 19.3244 55.6373 19.4151 55.648C19.5111 55.6533 19.5937 55.664 19.6631 55.68L19.5751 56.328C19.5057 56.312 19.4284 56.2987 19.3431 56.288C19.2631 56.2773 19.1857 56.272 19.1111 56.272C18.9457 56.272 18.7884 56.3067 18.6391 56.376C18.4897 56.4453 18.3564 56.544 18.2391 56.672C18.1217 56.7947 18.0284 56.944 17.9591 57.12C17.8951 57.296 17.8631 57.4933 17.8631 57.712V60H17.1591V55.712H17.7351L17.8151 56.496H17.8471C17.9377 56.336 18.0471 56.192 18.1751 56.064C18.3031 55.9307 18.4497 55.8267 18.6151 55.752C18.7804 55.672 18.9617 55.632 19.1591 55.632ZM28.8878 55.632C29.3731 55.632 29.7358 55.7573 29.9757 56.008C30.2158 56.2533 30.3358 56.6533 30.3358 57.208V60H29.6398V57.24C29.6398 56.904 29.5677 56.6507 29.4237 56.48C29.2851 56.3093 29.0664 56.224 28.7678 56.224C28.3518 56.224 28.0531 56.344 27.8717 56.584C27.6957 56.824 27.6077 57.1733 27.6077 57.632V60H26.9118V57.24C26.9118 57.016 26.8798 56.8293 26.8158 56.68C26.7517 56.5253 26.6557 56.4107 26.5278 56.336C26.3997 56.2613 26.2344 56.224 26.0317 56.224C25.7438 56.224 25.5171 56.2853 25.3517 56.408C25.1864 56.5253 25.0664 56.6987 24.9917 56.928C24.9224 57.1573 24.8877 57.44 24.8877 57.776V60H24.1837V55.712H24.7517L24.8557 56.296H24.8957C24.9864 56.1467 25.0957 56.024 25.2237 55.928C25.3571 55.8267 25.5037 55.752 25.6637 55.704C25.8237 55.656 25.9891 55.632 26.1597 55.632C26.4904 55.632 26.7651 55.6907 26.9838 55.808C27.2078 55.9253 27.3704 56.1067 27.4718 56.352H27.5118C27.6557 56.1067 27.8504 55.9253 28.0957 55.808C28.3464 55.6907 28.6104 55.632 28.8878 55.632ZM41.7574 55.712V60H41.0534V55.712H41.7574ZM41.4134 54.104C41.5201 54.104 41.6134 54.1413 41.6934 54.216C41.7788 54.2853 41.8214 54.3973 41.8214 54.552C41.8214 54.7013 41.7788 54.8133 41.6934 54.888C41.6134 54.9627 41.5201 55 41.4134 55C41.2961 55 41.1974 54.9627 41.1174 54.888C41.0374 54.8133 40.9974 54.7013 40.9974 54.552C40.9974 54.3973 41.0374 54.2853 41.1174 54.216C41.1974 54.1413 41.2961 54.104 41.4134 54.104ZM48.8759 55.632C49.4039 55.632 49.8279 55.816 50.1479 56.184C50.4733 56.552 50.6359 57.1067 50.6359 57.848C50.6359 58.3333 50.5613 58.744 50.4119 59.08C50.2679 59.4107 50.0626 59.6613 49.7959 59.832C49.5346 59.9973 49.2253 60.08 48.8679 60.08C48.6493 60.08 48.4546 60.0507 48.2839 59.992C48.1133 59.9333 47.9666 59.8587 47.8439 59.768C47.7266 59.672 47.6253 59.568 47.5399 59.456H47.4919C47.5026 59.5467 47.5133 59.6613 47.5239 59.8C47.5346 59.9387 47.5399 60.0587 47.5399 60.16V61.92H46.8359V55.712H47.4119L47.5079 56.296H47.5399C47.6253 56.1733 47.7266 56.0613 47.8439 55.96C47.9666 55.8587 48.1106 55.7787 48.2759 55.72C48.4466 55.6613 48.6466 55.632 48.8759 55.632ZM48.7479 56.224C48.4599 56.224 48.2279 56.28 48.0519 56.392C47.8759 56.4987 47.7479 56.6613 47.6679 56.88C47.5879 57.0987 47.5453 57.376 47.5399 57.712V57.848C47.5399 58.2 47.5773 58.4987 47.6519 58.744C47.7266 58.9893 47.8519 59.176 48.0279 59.304C48.2093 59.432 48.4546 59.496 48.7639 59.496C49.0253 59.496 49.2386 59.424 49.4039 59.28C49.5746 59.136 49.6999 58.9413 49.7799 58.696C49.8653 58.4453 49.9079 58.16 49.9079 57.84C49.9079 57.3493 49.8119 56.9573 49.6199 56.664C49.4333 56.3707 49.1426 56.224 48.7479 56.224ZM56.1818 55.712V60H55.4778V55.712H56.1818ZM55.8378 54.104C55.9445 54.104 56.0378 54.1413 56.1178 54.216C56.2031 54.2853 56.2458 54.3973 56.2458 54.552C56.2458 54.7013 56.2031 54.8133 56.1178 54.888C56.0378 54.9627 55.9445 55 55.8378 55C55.7205 55 55.6218 54.9627 55.5418 54.888C55.4618 54.8133 55.4218 54.7013 55.4218 54.552C55.4218 54.3973 55.4618 54.2853 55.5418 54.216C55.6218 54.1413 55.7205 54.104 55.8378 54.104ZM64.0523 58.816C64.0523 59.0933 63.983 59.3253 63.8443 59.512C63.7056 59.6987 63.5083 59.84 63.2523 59.936C62.9963 60.032 62.6923 60.08 62.3403 60.08C62.0416 60.08 61.783 60.056 61.5643 60.008C61.351 59.96 61.1616 59.8933 60.9963 59.808V59.168C61.167 59.2533 61.3723 59.3333 61.6123 59.408C61.8576 59.4773 62.1056 59.512 62.3563 59.512C62.7136 59.512 62.9723 59.456 63.1323 59.344C63.2923 59.2267 63.3723 59.072 63.3723 58.88C63.3723 58.7733 63.343 58.6773 63.2843 58.592C63.2256 58.5067 63.119 58.4213 62.9643 58.336C62.815 58.2507 62.599 58.1547 62.3163 58.048C62.039 57.9413 61.8016 57.8347 61.6043 57.728C61.407 57.6213 61.255 57.4933 61.1483 57.344C61.0416 57.1947 60.9883 57.0027 60.9883 56.768C60.9883 56.4053 61.135 56.1253 61.4283 55.928C61.727 55.7307 62.1163 55.632 62.5963 55.632C62.8576 55.632 63.1003 55.6587 63.3243 55.712C63.5536 55.76 63.767 55.8293 63.9643 55.92L63.7243 56.48C63.607 56.4267 63.4816 56.3813 63.3483 56.344C63.2203 56.3013 63.0896 56.2693 62.9563 56.248C62.823 56.2213 62.687 56.208 62.5483 56.208C62.2603 56.208 62.039 56.256 61.8843 56.352C61.735 56.4427 61.6603 56.568 61.6603 56.728C61.6603 56.8453 61.695 56.9467 61.7643 57.032C61.8336 57.112 61.9483 57.192 62.1083 57.272C62.2736 57.3467 62.4923 57.4373 62.7643 57.544C63.0363 57.6453 63.2683 57.7493 63.4603 57.856C63.6523 57.9627 63.799 58.0933 63.9003 58.248C64.0016 58.3973 64.0523 58.5867 64.0523 58.816ZM72.3924 55.712V60H71.8164L71.7124 59.432H71.6804C71.5898 59.5813 71.4724 59.704 71.3284 59.8C71.1844 59.896 71.0271 59.9653 70.8564 60.008C70.6858 60.056 70.5071 60.08 70.3204 60.08C69.9791 60.08 69.6911 60.0267 69.4564 59.92C69.2271 59.808 69.0538 59.6373 68.9364 59.408C68.8191 59.1787 68.7604 58.8827 68.7604 58.52V55.712H69.4724V58.472C69.4724 58.8133 69.5498 59.0693 69.7044 59.24C69.8591 59.4107 70.0991 59.496 70.4244 59.496C70.7444 59.496 70.9951 59.4373 71.1764 59.32C71.3631 59.1973 71.4938 59.0213 71.5684 58.792C71.6484 58.5573 71.6884 58.2747 71.6884 57.944V55.712H72.3924ZM82.1777 55.632C82.6631 55.632 83.0257 55.7573 83.2657 56.008C83.5057 56.2533 83.6257 56.6533 83.6257 57.208V60H82.9297V57.24C82.9297 56.904 82.8577 56.6507 82.7137 56.48C82.5751 56.3093 82.3564 56.224 82.0577 56.224C81.6417 56.224 81.3431 56.344 81.1617 56.584C80.9857 56.824 80.8977 57.1733 80.8977 57.632V60H80.2017V57.24C80.2017 57.016 80.1697 56.8293 80.1057 56.68C80.0417 56.5253 79.9457 56.4107 79.8177 56.336C79.6897 56.2613 79.5244 56.224 79.3217 56.224C79.0337 56.224 78.8071 56.2853 78.6417 56.408C78.4764 56.5253 78.3564 56.6987 78.2817 56.928C78.2124 57.1573 78.1777 57.44 78.1777 57.776V60H77.4737V55.712H78.0417L78.1457 56.296H78.1857C78.2764 56.1467 78.3857 56.024 78.5137 55.928C78.6471 55.8267 78.7937 55.752 78.9537 55.704C79.1137 55.656 79.2791 55.632 79.4497 55.632C79.7804 55.632 80.0551 55.6907 80.2737 55.808C80.4977 55.9253 80.6604 56.1067 80.7617 56.352H80.8017C80.9457 56.1067 81.1404 55.9253 81.3857 55.808C81.6364 55.6907 81.9004 55.632 82.1777 55.632Z" fill="#FF004D"/>
</svg>
