<svg width="11" height="11" viewBox="0 0 11 11" fill="none" xmlns="http://www.w3.org/2000/svg">
<path d="M10.2744 5.5C10.6751 5.5 11.0049 5.17372 10.9522 4.77644C10.818 3.76547 10.4046 2.80653 9.75156 2.01084C8.94432 1.02722 7.821 0.353925 6.573 0.105681C5.32499 -0.142563 4.02952 0.0496023 2.90732 0.649433C1.78511 1.24926 0.90561 2.21965 0.418663 3.39524C-0.0682844 4.57084 -0.132546 5.8789 0.236828 7.09657C0.606202 8.31423 1.38636 9.36615 2.44436 10.0731C3.50237 10.78 4.77277 11.0982 6.03909 10.9735C7.06348 10.8726 8.03393 10.4869 8.84366 9.86693C9.16186 9.62329 9.15936 9.15936 8.87598 8.87598C8.5926 8.5926 8.13601 8.59908 7.80665 8.8274C7.24341 9.21785 6.58674 9.46128 5.89684 9.52923C4.96466 9.62104 4.02948 9.38679 3.25065 8.86639C2.47182 8.34599 1.89752 7.57164 1.62561 6.67528C1.3537 5.77892 1.40101 4.81601 1.75947 3.95062C2.11792 3.08523 2.76535 2.3709 3.59144 1.92934C4.41753 1.48779 5.37117 1.34633 6.28987 1.52907C7.20856 1.71181 8.03547 2.20744 8.62971 2.93152C9.06949 3.4674 9.36169 4.10386 9.48387 4.77822C9.55532 5.17256 9.8736 5.5 10.2744 5.5Z" fill="black"/>
<path d="M5.98422 7.69713L3.82836 6.6562L5.69107 2.79836L7.84692 3.83928L7.64082 4.26613L5.97125 3.46L5.38948 4.6649L6.9618 5.42407L6.75831 5.84552L5.18599 5.08635L4.52074 6.46415L6.19032 7.27028L5.98422 7.69713Z" fill="black"/>
</svg>
