<svg width="17" height="22" viewBox="0 0 17 22" fill="none" xmlns="http://www.w3.org/2000/svg">
<path d="M12.5385 2.53847H14.8462C15.2542 2.53847 15.6455 2.70055 15.934 2.98907C16.2225 3.27759 16.3846 3.6689 16.3846 4.07693V19.4615C16.3846 19.8696 16.2225 20.2609 15.934 20.5494C15.6455 20.8379 15.2542 21 14.8462 21H2.53846C2.13044 21 1.73912 20.8379 1.4506 20.5494C1.16209 20.2609 1 19.8696 1 19.4615V4.07693C1 3.6689 1.16209 3.27759 1.4506 2.98907C1.73912 2.70055 2.13044 2.53847 2.53846 2.53847H4.84615" stroke="#AFAFAF" stroke-linecap="round" stroke-linejoin="round"/>
<path d="M11 1H6.38465C5.53498 1 4.84619 1.68879 4.84619 2.53846V3.30769C4.84619 4.15736 5.53498 4.84615 6.38465 4.84615H11C11.8497 4.84615 12.5385 4.15736 12.5385 3.30769V2.53846C12.5385 1.68879 11.8497 1 11 1Z" stroke="#AFAFAF" stroke-linecap="round" stroke-linejoin="round"/>
<path d="M4.84619 8.69231H12.5385" stroke="#AFAFAF" stroke-linecap="round" stroke-linejoin="round"/>
<path d="M4.84619 12.5385H12.5385" stroke="#AFAFAF" stroke-linecap="round" stroke-linejoin="round"/>
<path d="M4.84619 16.3846H12.5385" stroke="#AFAFAF" stroke-linecap="round" stroke-linejoin="round"/>
</svg>
