<svg width="26" height="22" viewBox="0 0 26 22" fill="none" xmlns="http://www.w3.org/2000/svg">
<path d="M24.6364 13.7273C24.6364 13.2451 24.4448 12.7826 24.1038 12.4416C23.7629 12.1006 23.3004 11.9091 22.8182 11.9091H17.3636V13.7273H8.27273V11.9091H2.81818C2.33597 11.9091 1.87351 12.1006 1.53253 12.4416C1.19156 12.7826 1 13.2451 1 13.7273V19.1818C1 19.664 1.19156 20.1265 1.53253 20.4675C1.87351 20.8084 2.33597 21 2.81818 21H22.8182C23.3004 21 23.7629 20.8084 24.1038 20.4675C24.4448 20.1265 24.6364 19.664 24.6364 19.1818V13.7273Z" stroke="#AFAFAF" stroke-linecap="round" stroke-linejoin="round"/>
<path d="M2.81812 6.45455H22.8181" stroke="#AFAFAF" stroke-linecap="round" stroke-linejoin="round"/>
<path d="M2.81812 1H22.8181" stroke="#AFAFAF" stroke-linecap="round" stroke-linejoin="round"/>
</svg>
