<svg width="17" height="22" viewBox="0 0 17 22" fill="none" xmlns="http://www.w3.org/2000/svg">
<path d="M12.5385 2.53857H14.8462C15.2542 2.53857 15.6455 2.70066 15.934 2.98918C16.2225 3.2777 16.3846 3.66901 16.3846 4.07704V19.4617C16.3846 19.8697 16.2225 20.261 15.934 20.5495C15.6455 20.838 15.2542 21.0001 14.8462 21.0001H2.53846C2.13044 21.0001 1.73912 20.838 1.4506 20.5495C1.16209 20.261 1 19.8697 1 19.4617V4.07704C1 3.66901 1.16209 3.2777 1.4506 2.98918C1.73912 2.70066 2.13044 2.53857 2.53846 2.53857H4.84615" stroke="#AFAFAF" stroke-linecap="round" stroke-linejoin="round"/>
<path d="M11 1H6.38465C5.53498 1 4.84619 1.68879 4.84619 2.53846V3.30769C4.84619 4.15736 5.53498 4.84615 6.38465 4.84615H11C11.8497 4.84615 12.5385 4.15736 12.5385 3.30769V2.53846C12.5385 1.68879 11.8497 1 11 1Z" stroke="#AFAFAF" stroke-linecap="round" stroke-linejoin="round"/>
<path d="M4.84619 8.69238H12.5385" stroke="#AFAFAF" stroke-linecap="round" stroke-linejoin="round"/>
<path d="M4.84619 12.5386H12.5385" stroke="#AFAFAF" stroke-linecap="round" stroke-linejoin="round"/>
<path d="M4.84619 16.3848H12.5385" stroke="#AFAFAF" stroke-linecap="round" stroke-linejoin="round"/>
</svg>
