<svg width="22" height="22" viewBox="0 0 22 22" fill="none" xmlns="http://www.w3.org/2000/svg">
<path d="M1 6.38462V2.53846C1 2.13044 1.16209 1.73912 1.4506 1.4506C1.73912 1.16209 2.13044 1 2.53846 1H6.38462" stroke="#AFAFAF" stroke-linecap="round" stroke-linejoin="round"/>
<path d="M20.9998 6.38462V2.53846C20.9998 2.13044 20.8378 1.73912 20.5492 1.4506C20.2607 1.16209 19.8694 1 19.4614 1H15.6152" stroke="#AFAFAF" stroke-linecap="round" stroke-linejoin="round"/>
<path d="M1 15.6154V19.4615C1 19.8696 1.16209 20.2609 1.4506 20.5494C1.73912 20.8379 2.13044 21 2.53846 21H6.38462" stroke="#AFAFAF" stroke-linecap="round" stroke-linejoin="round"/>
<path d="M20.9998 15.6154V19.4615C20.9998 19.8696 20.8378 20.2609 20.5492 20.5494C20.2607 20.8379 19.8694 21 19.4614 21H15.6152" stroke="#AFAFAF" stroke-linecap="round" stroke-linejoin="round"/>
<path d="M1.76904 11.7692H5.6152L7.92289 5.61539L10.9998 14.0769L14.0767 7.92308L16.3844 11.7692H20.2306" stroke="#AFAFAF" stroke-linecap="round" stroke-linejoin="round"/>
</svg>
