<svg width="13" height="16" viewBox="0 0 13 16" fill="none" xmlns="http://www.w3.org/2000/svg">
<path d="M3 5V3C3 1.89543 3.89543 1 5 1H10C11.1046 1 12 1.89543 12 3V13C12 14.1046 11.1046 15 10 15H5C3.89543 15 3 14.1045 3 12.9999C3 12.3939 3 11.8225 3 11.2662" stroke="#FF004D" stroke-width="0.5" stroke-linecap="round"/>
<path d="M1 7.75C0.861929 7.75 0.75 7.86193 0.75 8C0.75 8.13807 0.861929 8.25 1 8.25L1 7.75ZM7.17678 8.17678C7.27441 8.07915 7.27441 7.92085 7.17678 7.82322L5.58579 6.23223C5.48816 6.1346 5.32986 6.1346 5.23223 6.23223C5.1346 6.32986 5.1346 6.48816 5.23223 6.58579L6.64645 8L5.23223 9.41421C5.1346 9.51184 5.1346 9.67014 5.23223 9.76777C5.32986 9.8654 5.48816 9.8654 5.58579 9.76777L7.17678 8.17678ZM1 8.25L7 8.25V7.75L1 7.75L1 8.25Z" fill="#FF004D"/>
</svg>
