<svg width="55" height="55" viewBox="0 0 55 55" fill="none" xmlns="http://www.w3.org/2000/svg">
<path d="M51.2681 37.5186C51.2079 37.3825 51.1477 37.2313 51.0875 37.0952H41.4268C41.4869 37.2464 41.5321 37.3977 41.5923 37.5338L51.2681 37.5186Z" fill="#F24A72"/>
<path d="M40.8252 35.5679C40.8703 35.6737 40.9155 35.7645 40.9456 35.8703L50.5461 35.8552C50.501 35.7645 50.4558 35.6586 50.4107 35.5679H40.8252Z" fill="#F24A72"/>
<path d="M51.7801 38.7583H41.9839C42.1344 39.2422 42.2096 39.5144 42.2096 39.5144H52.081C52.081 39.5144 51.9757 39.2422 51.7801 38.7583Z" fill="#F24A72"/>
<path d="M40.3134 34.373L49.8538 34.3276C46.453 27.0991 39.5911 14.85 31.9468 14.6081C21.0973 14.2603 14.7471 20.8234 14.7471 20.8234C14.7471 20.8234 22.9331 15.3793 31.1944 22.0936C35.784 25.8137 38.6732 30.7739 40.3285 34.4486L40.3134 34.373Z" fill="#F24A72"/>
<path d="M13.8743 20.0217C13.8291 19.9158 13.784 19.8251 13.7539 19.7192L4.15332 19.7344C4.19846 19.8251 4.24361 19.931 4.28875 20.0217H13.8743Z" fill="#F24A72"/>
<path d="M3.41602 18.0708C3.47621 18.2069 3.5364 18.3581 3.59659 18.4942H13.2724C13.2122 18.343 13.167 18.1918 13.1068 18.0557L3.41602 18.0708Z" fill="#F24A72"/>
<path d="M12.7003 16.8309C12.5649 16.4075 12.5047 16.1807 12.5047 16.1807H2.6333C2.6333 16.1807 2.72359 16.4226 2.88911 16.8309H12.7003Z" fill="#F24A72"/>
<path d="M23.5197 33.4352C18.9452 29.7604 16.056 24.8608 14.4007 21.2163L4.86035 21.2617C8.24612 28.4145 15.1381 40.6032 22.7824 40.8451C33.6168 41.1929 39.6511 34.4786 39.6511 34.4786C39.6511 34.4786 31.781 40.0739 23.5197 33.4352Z" fill="#F24A72"/>
<path d="M0 47.0304H9.26949C9.26949 47.0304 11.9781 34.3427 19.7428 27.0235C27.5075 19.7043 33.933 27.0084 33.933 27.0084C33.933 27.0084 29.1026 19.4623 18.9302 19.8404C8.75787 20.2185 0 47.0304 0 47.0304Z" fill="#F24A72"/>
<path d="M54.7141 7.45508H45.4446C45.4446 7.45508 42.721 20.2183 34.9563 27.7644C27.1916 35.3105 20.6006 28.2634 20.6006 28.2634C20.6006 28.2634 25.5965 35.8549 35.7839 35.4617C45.9713 35.0685 54.7141 7.45508 54.7141 7.45508Z" fill="#F24A72"/>
</svg>
