<svg width="27" height="7" viewBox="0 0 27 7" fill="none" xmlns="http://www.w3.org/2000/svg">
<path d="M3.88636 1.63636C3.85227 1.34848 3.71402 1.125 3.47159 0.965909C3.22917 0.806818 2.93182 0.727273 2.57955 0.727273C2.32197 0.727273 2.09659 0.768939 1.90341 0.852273C1.71212 0.935606 1.5625 1.05019 1.45455 1.19602C1.34848 1.34186 1.29545 1.50758 1.29545 1.69318C1.29545 1.84848 1.33239 1.98201 1.40625 2.09375C1.48201 2.2036 1.5786 2.29545 1.69602 2.36932C1.81345 2.44129 1.93655 2.50095 2.06534 2.5483C2.19413 2.59375 2.3125 2.63068 2.42045 2.65909L3.01136 2.81818C3.16288 2.85795 3.33144 2.91288 3.51705 2.98295C3.70455 3.05303 3.88352 3.14867 4.05398 3.26989C4.22633 3.3892 4.36837 3.54261 4.48011 3.73011C4.59186 3.91761 4.64773 4.14773 4.64773 4.42045C4.64773 4.73485 4.56534 5.01894 4.40057 5.27273C4.23769 5.52652 3.99905 5.72822 3.68466 5.87784C3.37216 6.02746 2.99242 6.10227 2.54545 6.10227C2.12879 6.10227 1.76799 6.03504 1.46307 5.90057C1.16004 5.7661 0.921402 5.5786 0.747159 5.33807C0.574811 5.09754 0.477273 4.81818 0.454545 4.5H1.18182C1.20076 4.7197 1.27462 4.90152 1.40341 5.04545C1.53409 5.1875 1.69886 5.29356 1.89773 5.36364C2.09848 5.43182 2.31439 5.46591 2.54545 5.46591C2.81439 5.46591 3.05587 5.42235 3.26989 5.33523C3.4839 5.24621 3.65341 5.12311 3.77841 4.96591C3.90341 4.80682 3.96591 4.62121 3.96591 4.40909C3.96591 4.21591 3.91193 4.05871 3.80398 3.9375C3.69602 3.81629 3.55398 3.7178 3.37784 3.64205C3.2017 3.56629 3.01136 3.5 2.80682 3.44318L2.09091 3.23864C1.63636 3.10795 1.27652 2.9214 1.01136 2.67898C0.746212 2.43655 0.613636 2.11932 0.613636 1.72727C0.613636 1.40151 0.701705 1.11742 0.877841 0.875C1.05587 0.630682 1.29451 0.441288 1.59375 0.306818C1.89489 0.170454 2.23106 0.102273 2.60227 0.102273C2.97727 0.102273 3.31061 0.169507 3.60227 0.303977C3.89394 0.436553 4.125 0.618371 4.29545 0.849432C4.4678 1.08049 4.55871 1.3428 4.56818 1.63636H3.88636ZM6.04474 6H5.30611L7.44247 0.181818H8.16974L10.3061 6H9.56747L7.82884 1.10227H7.78338L6.04474 6ZM6.31747 3.72727H9.29474V4.35227H6.31747V3.72727ZM10.2145 0.806818V0.181818H14.5781V0.806818H12.7486V6H12.044V0.806818H10.2145ZM20.2791 0.181818V6H19.5973L16.4268 1.43182H16.37V6H15.6655V0.181818H16.3473L19.5291 4.76136H19.5859V0.181818H20.2791ZM21.9276 6H21.1889L23.3253 0.181818H24.0526L26.1889 6H25.4503L23.7116 1.10227H23.6662L21.9276 6ZM22.2003 3.72727H25.1776V4.35227H22.2003V3.72727Z" fill="#FF004D"/>
</svg>
