<svg width="17" height="22" viewBox="0 0 17 22" fill="none" xmlns="http://www.w3.org/2000/svg">
<path d="M12.5385 2.53845H14.8462C15.2542 2.53845 15.6455 2.70054 15.934 2.98906C16.2225 3.27757 16.3846 3.66889 16.3846 4.07691V19.4615C16.3846 19.8696 16.2225 20.2609 15.934 20.5494C15.6455 20.8379 15.2542 21 14.8462 21H2.53846C2.13044 21 1.73912 20.8379 1.4506 20.5494C1.16209 20.2609 1 19.8696 1 19.4615V4.07691C1 3.66889 1.16209 3.27757 1.4506 2.98906C1.73912 2.70054 2.13044 2.53845 2.53846 2.53845H4.84615" stroke="#AFAFAF" stroke-linecap="round" stroke-linejoin="round"/>
<path d="M11 1H6.38465C5.53498 1 4.84619 1.68879 4.84619 2.53846V3.30769C4.84619 4.15736 5.53498 4.84615 6.38465 4.84615H11C11.8497 4.84615 12.5385 4.15736 12.5385 3.30769V2.53846C12.5385 1.68879 11.8497 1 11 1Z" stroke="#AFAFAF" stroke-linecap="round" stroke-linejoin="round"/>
<path d="M6.38452 10.2308L10.9999 14.8462" stroke="#AFAFAF" stroke-linecap="round" stroke-linejoin="round"/>
<path d="M10.9999 10.2308L6.38452 14.8462" stroke="#AFAFAF" stroke-linecap="round" stroke-linejoin="round"/>
</svg>
