<svg width="20" height="6" viewBox="0 0 20 6" fill="none" xmlns="http://www.w3.org/2000/svg">
<path d="M0.704545 6V0.181818H2.67045C3.12689 0.181818 3.5 0.264204 3.78977 0.428977C4.08144 0.591856 4.29735 0.8125 4.4375 1.09091C4.57765 1.36932 4.64773 1.67992 4.64773 2.02273C4.64773 2.36553 4.57765 2.67708 4.4375 2.95739C4.29924 3.23769 4.08523 3.46117 3.79545 3.62784C3.50568 3.79261 3.13447 3.875 2.68182 3.875H1.27273V3.25H2.65909C2.97159 3.25 3.22254 3.19602 3.41193 3.08807C3.60133 2.98011 3.73864 2.83428 3.82386 2.65057C3.91098 2.46496 3.95455 2.25568 3.95455 2.02273C3.95455 1.78977 3.91098 1.58144 3.82386 1.39773C3.73864 1.21402 3.60038 1.07008 3.40909 0.965909C3.2178 0.859848 2.96402 0.806818 2.64773 0.806818H1.40909V6H0.704545ZM5.42756 6H4.68892L6.82528 0.181818H7.55256L9.68892 6H8.95028L7.21165 1.10227H7.16619L5.42756 6ZM5.70028 3.72727H8.67756V4.35227H5.70028V3.72727ZM9.50142 0.181818H10.3082L11.9219 2.89773H11.9901L13.6037 0.181818H14.4105L12.3082 3.60227V6H11.6037V3.60227L9.50142 0.181818ZM14.9666 6H14.228L16.3643 0.181818H17.0916L19.228 6H18.4893L16.7507 1.10227H16.7053L14.9666 6ZM15.2393 3.72727H18.2166V4.35227H15.2393V3.72727Z" fill="#FFB443"/>
</svg>
