<svg width="90" height="30" viewBox="0 0 90 30" fill="none" xmlns="http://www.w3.org/2000/svg">
<path d="M15.841 16.862C15.841 18.164 15.5207 19.3007 14.88 20.272C14.2393 21.2433 13.3093 21.9977 12.09 22.535C10.8913 23.0517 9.424 23.31 7.688 23.31C6.92333 23.31 6.169 23.2583 5.425 23.155C4.70167 23.0517 3.999 22.907 3.317 22.721C2.65567 22.5143 2.02533 22.2663 1.426 21.977V17.606C2.48 18.0607 3.565 18.4843 4.681 18.877C5.81767 19.249 6.944 19.435 8.06 19.435C8.82467 19.435 9.43433 19.3317 9.889 19.125C10.3643 18.9183 10.7053 18.6393 10.912 18.288C11.1393 17.9367 11.253 17.5337 11.253 17.079C11.253 16.521 11.0567 16.0457 10.664 15.653C10.292 15.2603 9.78567 14.8987 9.145 14.568C8.50433 14.2167 7.77067 13.8447 6.944 13.452C6.42733 13.204 5.86933 12.9147 5.27 12.584C4.67067 12.2327 4.092 11.809 3.534 11.313C2.99667 10.7963 2.55233 10.1763 2.201 9.453C1.84967 8.72967 1.674 7.86167 1.674 6.849C1.674 5.52633 1.97367 4.4 2.573 3.47C3.193 2.51933 4.061 1.796 5.177 1.3C6.31367 0.803999 7.64667 0.555999 9.176 0.555999C10.3333 0.555999 11.4287 0.690332 12.462 0.958999C13.516 1.22767 14.6113 1.61 15.748 2.106L14.229 5.764C13.2163 5.35067 12.307 5.03033 11.501 4.803C10.695 4.57567 9.86833 4.462 9.021 4.462C8.44233 4.462 7.94633 4.555 7.533 4.741C7.11967 4.927 6.79933 5.18533 6.572 5.516C6.36533 5.84667 6.262 6.23933 6.262 6.694C6.262 7.21067 6.417 7.655 6.727 8.027C7.037 8.37833 7.502 8.71933 8.122 9.05C8.742 9.38067 9.517 9.77333 10.447 10.228C11.5837 10.7653 12.5447 11.3233 13.33 11.902C14.136 12.4807 14.756 13.1627 15.19 13.948C15.624 14.7333 15.841 15.7047 15.841 16.862ZM30.4662 23L28.8542 17.73H20.7942L19.1822 23H14.1292L21.9412 0.773H27.6762L35.5192 23H30.4662ZM26.1262 8.647C26.0229 8.29567 25.8886 7.85133 25.7232 7.314C25.5579 6.77667 25.3926 6.229 25.2272 5.671C25.0619 5.113 24.9276 4.62733 24.8242 4.214C24.7209 4.62733 24.5762 5.144 24.3902 5.764C24.2249 6.36333 24.0596 6.942 23.8942 7.5C23.7496 8.03733 23.6359 8.41967 23.5532 8.647L21.9722 13.793H27.7382L26.1262 8.647ZM41.7229 23H37.0419V4.772H31.0279V0.865999H47.7369V4.772H41.7229V23ZM67.828 23H61.876L52.235 6.26H52.111C52.1317 6.77667 52.1523 7.30367 52.173 7.841C52.1937 8.35767 52.2143 8.88467 52.235 9.422C52.2763 9.93867 52.3073 10.4657 52.328 11.003C52.3487 11.5197 52.3693 12.0467 52.39 12.584V23H48.205V0.865999H54.126L63.736 17.451H63.829C63.8083 16.9343 63.7877 16.428 63.767 15.932C63.7463 15.4153 63.7257 14.909 63.705 14.413C63.705 13.8963 63.6947 13.39 63.674 12.894C63.6533 12.3773 63.6327 11.8607 63.612 11.344V0.865999H67.828V23ZM84.0248 23L82.4128 17.73H74.3528L72.7408 23H67.6878L75.4998 0.773H81.2348L89.0778 23H84.0248ZM79.6848 8.647C79.5814 8.29567 79.4471 7.85133 79.2818 7.314C79.1164 6.77667 78.9511 6.229 78.7858 5.671C78.6204 5.113 78.4861 4.62733 78.3828 4.214C78.2794 4.62733 78.1348 5.144 77.9488 5.764C77.7834 6.36333 77.6181 6.942 77.4528 7.5C77.3081 8.03733 77.1944 8.41967 77.1118 8.647L75.5308 13.793H81.2968L79.6848 8.647ZM0.388 29V26.144H0.748V28.68H1.996V29H0.388ZM5.90166 27.924C5.90166 28.1027 5.87766 28.2613 5.82966 28.4C5.78432 28.536 5.71766 28.652 5.62966 28.748C5.54432 28.844 5.43899 28.9173 5.31366 28.968C5.19099 29.016 5.05366 29.04 4.90166 29.04C4.76032 29.04 4.62966 29.016 4.50966 28.968C4.38966 28.9173 4.28566 28.844 4.19766 28.748C4.10966 28.652 4.04032 28.536 3.98966 28.4C3.94166 28.2613 3.91766 28.1027 3.91766 27.924C3.91766 27.6867 3.95766 27.4867 4.03766 27.324C4.11766 27.1587 4.23232 27.0333 4.38166 26.948C4.53099 26.86 4.70832 26.816 4.91366 26.816C5.10832 26.816 5.27899 26.86 5.42566 26.948C5.57499 27.0333 5.69099 27.1587 5.77366 27.324C5.85899 27.4867 5.90166 27.6867 5.90166 27.924ZM4.28166 27.924C4.28166 28.092 4.30299 28.2387 4.34566 28.364C4.39099 28.4867 4.46032 28.5813 4.55366 28.648C4.64699 28.7147 4.76566 28.748 4.90966 28.748C5.05366 28.748 5.17232 28.7147 5.26566 28.648C5.35899 28.5813 5.42699 28.4867 5.46966 28.364C5.51499 28.2387 5.53766 28.092 5.53766 27.924C5.53766 27.7533 5.51499 27.608 5.46966 27.488C5.42432 27.368 5.35499 27.276 5.26166 27.212C5.17099 27.1453 5.05232 27.112 4.90566 27.112C4.68699 27.112 4.52832 27.184 4.42966 27.328C4.33099 27.472 4.28166 27.6707 4.28166 27.924ZM9.05953 26.816C9.09953 26.816 9.1422 26.8187 9.18753 26.824C9.23553 26.8267 9.27686 26.832 9.31153 26.84L9.26753 27.164C9.23286 27.156 9.1942 27.1493 9.15153 27.144C9.11153 27.1387 9.07286 27.136 9.03553 27.136C8.95286 27.136 8.8742 27.1533 8.79953 27.188C8.72486 27.2227 8.6582 27.272 8.59953 27.336C8.54086 27.3973 8.4942 27.472 8.45953 27.56C8.42753 27.648 8.41153 27.7467 8.41153 27.856V29H8.05953V26.856H8.34753L8.38753 27.248H8.40353C8.44886 27.168 8.50353 27.096 8.56753 27.032C8.63153 26.9653 8.70486 26.9133 8.78753 26.876C8.8702 26.836 8.96086 26.816 9.05953 26.816ZM13.6639 26.816C13.9065 26.816 14.0879 26.8787 14.2079 27.004C14.3279 27.1267 14.3879 27.3267 14.3879 27.604V29H14.0399V27.62C14.0399 27.452 14.0039 27.3253 13.9319 27.24C13.8625 27.1547 13.7532 27.112 13.6039 27.112C13.3959 27.112 13.2465 27.172 13.1559 27.292C13.0679 27.412 13.0239 27.5867 13.0239 27.816V29H12.6759V27.62C12.6759 27.508 12.6599 27.4147 12.6279 27.34C12.5959 27.2627 12.5479 27.2053 12.4839 27.168C12.4199 27.1307 12.3372 27.112 12.2359 27.112C12.0919 27.112 11.9785 27.1427 11.8959 27.204C11.8132 27.2627 11.7532 27.3493 11.7159 27.464C11.6812 27.5787 11.6639 27.72 11.6639 27.888V29H11.3119V26.856H11.5959L11.6479 27.148H11.6679C11.7132 27.0733 11.7679 27.012 11.8319 26.964C11.8985 26.9133 11.9719 26.876 12.0519 26.852C12.1319 26.828 12.2145 26.816 12.2999 26.816C12.4652 26.816 12.6025 26.8453 12.7119 26.904C12.8239 26.9627 12.9052 27.0533 12.9559 27.176H12.9759C13.0479 27.0533 13.1452 26.9627 13.2679 26.904C13.3932 26.8453 13.5252 26.816 13.6639 26.816ZM19.5787 26.856V29H19.2267V26.856H19.5787ZM19.4067 26.052C19.4601 26.052 19.5067 26.0707 19.5467 26.108C19.5894 26.1427 19.6107 26.1987 19.6107 26.276C19.6107 26.3507 19.5894 26.4067 19.5467 26.444C19.5067 26.4813 19.4601 26.5 19.4067 26.5C19.3481 26.5 19.2987 26.4813 19.2587 26.444C19.2187 26.4067 19.1987 26.3507 19.1987 26.276C19.1987 26.1987 19.2187 26.1427 19.2587 26.108C19.2987 26.0707 19.3481 26.052 19.4067 26.052ZM22.878 26.816C23.142 26.816 23.354 26.908 23.514 27.092C23.6766 27.276 23.758 27.5533 23.758 27.924C23.758 28.1667 23.7206 28.372 23.646 28.54C23.574 28.7053 23.4713 28.8307 23.338 28.916C23.2073 28.9987 23.0526 29.04 22.874 29.04C22.7646 29.04 22.6673 29.0253 22.582 28.996C22.4966 28.9667 22.4233 28.9293 22.362 28.884C22.3033 28.836 22.2526 28.784 22.21 28.728H22.186C22.1913 28.7733 22.1966 28.8307 22.202 28.9C22.2073 28.9693 22.21 29.0293 22.21 29.08V29.96H21.858V26.856H22.146L22.194 27.148H22.21C22.2526 27.0867 22.3033 27.0307 22.362 26.98C22.4233 26.9293 22.4953 26.8893 22.578 26.86C22.6633 26.8307 22.7633 26.816 22.878 26.816ZM22.814 27.112C22.67 27.112 22.554 27.14 22.466 27.196C22.378 27.2493 22.314 27.3307 22.274 27.44C22.234 27.5493 22.2126 27.688 22.21 27.856V27.924C22.21 28.1 22.2286 28.2493 22.266 28.372C22.3033 28.4947 22.366 28.588 22.454 28.652C22.5446 28.716 22.6673 28.748 22.822 28.748C22.9526 28.748 23.0593 28.712 23.142 28.64C23.2273 28.568 23.29 28.4707 23.33 28.348C23.3726 28.2227 23.394 28.08 23.394 27.92C23.394 27.6747 23.346 27.4787 23.25 27.332C23.1566 27.1853 23.0113 27.112 22.814 27.112ZM26.2709 26.856V29H25.9189V26.856H26.2709ZM26.0989 26.052C26.1522 26.052 26.1989 26.0707 26.2389 26.108C26.2816 26.1427 26.3029 26.1987 26.3029 26.276C26.3029 26.3507 26.2816 26.4067 26.2389 26.444C26.1989 26.4813 26.1522 26.5 26.0989 26.5C26.0402 26.5 25.9909 26.4813 25.9509 26.444C25.9109 26.4067 25.8909 26.3507 25.8909 26.276C25.8909 26.1987 25.9109 26.1427 25.9509 26.108C25.9909 26.0707 26.0402 26.052 26.0989 26.052ZM29.9462 28.408C29.9462 28.5467 29.9115 28.6627 29.8422 28.756C29.7728 28.8493 29.6742 28.92 29.5462 28.968C29.4182 29.016 29.2662 29.04 29.0902 29.04C28.9408 29.04 28.8115 29.028 28.7022 29.004C28.5955 28.98 28.5008 28.9467 28.4182 28.904V28.584C28.5035 28.6267 28.6062 28.6667 28.7262 28.704C28.8488 28.7387 28.9728 28.756 29.0982 28.756C29.2768 28.756 29.4062 28.728 29.4862 28.672C29.5662 28.6133 29.6062 28.536 29.6062 28.44C29.6062 28.3867 29.5915 28.3387 29.5622 28.296C29.5328 28.2533 29.4795 28.2107 29.4022 28.168C29.3275 28.1253 29.2195 28.0773 29.0782 28.024C28.9395 27.9707 28.8208 27.9173 28.7222 27.864C28.6235 27.8107 28.5475 27.7467 28.4942 27.672C28.4408 27.5973 28.4142 27.5013 28.4142 27.384C28.4142 27.2027 28.4875 27.0627 28.6342 26.964C28.7835 26.8653 28.9782 26.816 29.2182 26.816C29.3488 26.816 29.4702 26.8293 29.5822 26.856C29.6968 26.88 29.8035 26.9147 29.9022 26.96L29.7822 27.24C29.7235 27.2133 29.6608 27.1907 29.5942 27.172C29.5302 27.1507 29.4648 27.1347 29.3982 27.124C29.3315 27.1107 29.2635 27.104 29.1942 27.104C29.0502 27.104 28.9395 27.128 28.8622 27.176C28.7875 27.2213 28.7502 27.284 28.7502 27.364C28.7502 27.4227 28.7675 27.4733 28.8022 27.516C28.8368 27.556 28.8942 27.596 28.9742 27.636C29.0568 27.6733 29.1662 27.7187 29.3022 27.772C29.4382 27.8227 29.5542 27.8747 29.6502 27.928C29.7462 27.9813 29.8195 28.0467 29.8702 28.124C29.9208 28.1987 29.9462 28.2933 29.9462 28.408ZM33.8562 26.856V29H33.5682L33.5162 28.716H33.5002C33.4549 28.7907 33.3962 28.852 33.3242 28.9C33.2522 28.948 33.1736 28.9827 33.0882 29.004C33.0029 29.028 32.9136 29.04 32.8202 29.04C32.6496 29.04 32.5056 29.0133 32.3882 28.96C32.2736 28.904 32.1869 28.8187 32.1282 28.704C32.0696 28.5893 32.0402 28.4413 32.0402 28.26V26.856H32.3962V28.236C32.3962 28.4067 32.4349 28.5347 32.5122 28.62C32.5896 28.7053 32.7096 28.748 32.8722 28.748C33.0322 28.748 33.1576 28.7187 33.2482 28.66C33.3416 28.5987 33.4069 28.5107 33.4442 28.396C33.4842 28.2787 33.5042 28.1373 33.5042 27.972V26.856H33.8562ZM38.4889 26.816C38.7315 26.816 38.9129 26.8787 39.0329 27.004C39.1529 27.1267 39.2129 27.3267 39.2129 27.604V29H38.8649V27.62C38.8649 27.452 38.8289 27.3253 38.7569 27.24C38.6875 27.1547 38.5782 27.112 38.4289 27.112C38.2209 27.112 38.0715 27.172 37.9809 27.292C37.8929 27.412 37.8489 27.5867 37.8489 27.816V29H37.5009V27.62C37.5009 27.508 37.4849 27.4147 37.4529 27.34C37.4209 27.2627 37.3729 27.2053 37.3089 27.168C37.2449 27.1307 37.1622 27.112 37.0609 27.112C36.9169 27.112 36.8035 27.1427 36.7209 27.204C36.6382 27.2627 36.5782 27.3493 36.5409 27.464C36.5062 27.5787 36.4889 27.72 36.4889 27.888V29H36.1369V26.856H36.4209L36.4729 27.148H36.4929C36.5382 27.0733 36.5929 27.012 36.6569 26.964C36.7235 26.9133 36.7969 26.876 36.8769 26.852C36.9569 26.828 37.0395 26.816 37.1249 26.816C37.2902 26.816 37.4275 26.8453 37.5369 26.904C37.6489 26.9627 37.7302 27.0533 37.7809 27.176H37.8009C37.8729 27.0533 37.9702 26.9627 38.0929 26.904C38.2182 26.8453 38.3502 26.816 38.4889 26.816Z" fill="#F24A72"/>
</svg>
