<svg width="90" height="30" viewBox="0 0 90 30" fill="none" xmlns="http://www.w3.org/2000/svg">
<path d="M9.858 0.865999C12.71 0.865999 14.787 1.486 16.089 2.726C17.4117 3.94533 18.073 5.62967 18.073 7.779C18.073 8.75033 17.9283 9.68033 17.639 10.569C17.3497 11.437 16.864 12.2223 16.182 12.925C15.5207 13.607 14.6423 14.1443 13.547 14.537C12.4517 14.9297 11.098 15.126 9.486 15.126H7.471V23H2.79V0.865999H9.858ZM9.61 4.71H7.471V11.282H9.021C9.90967 11.282 10.6743 11.1683 11.315 10.941C11.9557 10.7137 12.4517 10.352 12.803 9.856C13.1543 9.36 13.33 8.71933 13.33 7.934C13.33 6.83867 13.0303 6.03267 12.431 5.516C11.8317 4.97867 10.8913 4.71 9.61 4.71ZM27.283 18.9888C27.5555 18.9888 27.8128 19.0443 28.055 19.1553C28.3073 19.2562 28.5242 19.3975 28.7059 19.5791C28.8875 19.7607 29.0288 19.9777 29.1297 20.23C29.2407 20.4722 29.2962 20.7295 29.2962 21.002C29.2962 21.2744 29.2407 21.5368 29.1297 21.7891C29.0288 22.0312 28.8875 22.2432 28.7059 22.4248C28.5242 22.6064 28.3073 22.7528 28.055 22.8638C27.8128 22.9647 27.5555 23.0151 27.283 23.0151C27.0106 23.0151 26.7482 22.9647 26.4959 22.8638C26.2537 22.7528 26.0418 22.6064 25.8602 22.4248C25.6785 22.2432 25.5322 22.0312 25.4212 21.7891C25.3203 21.5368 25.2698 21.2744 25.2698 21.002C25.2698 20.7295 25.3203 20.4722 25.4212 20.23C25.5322 19.9777 25.6785 19.7607 25.8602 19.5791C26.0418 19.3975 26.2537 19.2562 26.4959 19.1553C26.7482 19.0443 27.0106 18.9888 27.283 18.9888ZM57.0095 11.902C57.0095 13.6173 56.7925 15.1777 56.3585 16.583C55.9452 17.9677 55.3045 19.1663 54.4365 20.179C53.5892 21.1917 52.4938 21.9667 51.1505 22.504C49.8278 23.0413 48.2675 23.31 46.4695 23.31C44.6715 23.31 43.1008 23.0413 41.7575 22.504C40.4348 21.946 39.3395 21.171 38.4715 20.179C37.6242 19.1663 36.9835 17.9573 36.5495 16.552C36.1362 15.1467 35.9295 13.5863 35.9295 11.871C35.9295 9.577 36.3015 7.58267 37.0455 5.888C37.8102 4.19333 38.9675 2.881 40.5175 1.951C42.0882 1.00033 44.0825 0.524999 46.5005 0.524999C48.8978 0.524999 50.8715 1.00033 52.4215 1.951C53.9715 2.881 55.1185 4.20367 55.8625 5.919C56.6272 7.61367 57.0095 9.608 57.0095 11.902ZM40.8585 11.902C40.8585 13.452 41.0548 14.785 41.4475 15.901C41.8402 17.017 42.4498 17.8747 43.2765 18.474C44.1032 19.0733 45.1675 19.373 46.4695 19.373C47.8128 19.373 48.8875 19.0733 49.6935 18.474C50.5202 17.8747 51.1195 17.017 51.4915 15.901C51.8842 14.785 52.0805 13.452 52.0805 11.902C52.0805 9.56667 51.6465 7.73767 50.7785 6.415C49.9105 5.09233 48.4845 4.431 46.5005 4.431C45.1778 4.431 44.1032 4.73067 43.2765 5.33C42.4498 5.92933 41.8402 6.787 41.4475 7.903C41.0548 9.019 40.8585 10.352 40.8585 11.902ZM66.6215 18.9888C66.894 18.9888 67.1513 19.0443 67.3935 19.1553C67.6458 19.2562 67.8628 19.3975 68.0444 19.5791C68.226 19.7607 68.3673 19.9777 68.4682 20.23C68.5792 20.4722 68.6347 20.7295 68.6347 21.002C68.6347 21.2744 68.5792 21.5368 68.4682 21.7891C68.3673 22.0312 68.226 22.2432 68.0444 22.4248C67.8628 22.6064 67.6458 22.7528 67.3935 22.8638C67.1513 22.9647 66.894 23.0151 66.6215 23.0151C66.3491 23.0151 66.0867 22.9647 65.8344 22.8638C65.5922 22.7528 65.3803 22.6064 65.1987 22.4248C65.0171 22.2432 64.8707 22.0312 64.7597 21.7891C64.6588 21.5368 64.6084 21.2744 64.6084 21.002C64.6084 20.7295 64.6588 20.4722 64.7597 20.23C64.8707 19.9777 65.0171 19.7607 65.1987 19.5791C65.3803 19.3975 65.5922 19.2562 65.8344 19.1553C66.0867 19.0443 66.3491 18.9888 66.6215 18.9888ZM76.26 23V0.865999H80.941V19.125H89.931V23H76.26ZM1.144 26.144C1.51733 26.144 1.78933 26.2173 1.96 26.364C2.13067 26.5107 2.216 26.7173 2.216 26.984C2.216 27.1013 2.196 27.2147 2.156 27.324C2.11867 27.4307 2.056 27.5267 1.968 27.612C1.88 27.6973 1.76267 27.7653 1.616 27.816C1.46933 27.864 1.28933 27.888 1.076 27.888H0.748V29H0.388V26.144H1.144ZM1.112 26.452H0.748V27.58H1.036C1.21733 27.58 1.368 27.5613 1.488 27.524C1.608 27.484 1.69733 27.4213 1.756 27.336C1.81467 27.2507 1.844 27.1387 1.844 27C1.844 26.816 1.78533 26.6787 1.668 26.588C1.55067 26.4973 1.36533 26.452 1.112 26.452ZM5.17387 26.82C5.43521 26.82 5.62854 26.8773 5.75388 26.992C5.87921 27.1067 5.94187 27.2893 5.94187 27.54V29H5.68587L5.61787 28.696H5.60187C5.54054 28.7733 5.47654 28.8387 5.40987 28.892C5.34587 28.9427 5.27121 28.98 5.18587 29.004C5.10321 29.028 5.00187 29.04 4.88187 29.04C4.75387 29.04 4.63787 29.0173 4.53387 28.972C4.43254 28.9267 4.35254 28.8573 4.29387 28.764C4.23521 28.668 4.20587 28.548 4.20587 28.404C4.20587 28.1907 4.28987 28.0267 4.45787 27.912C4.62587 27.7947 4.88454 27.7307 5.23387 27.72L5.59787 27.708V27.58C5.59787 27.4013 5.55921 27.2773 5.48187 27.208C5.40454 27.1387 5.29521 27.104 5.15387 27.104C5.04187 27.104 4.93521 27.1213 4.83387 27.156C4.73254 27.188 4.63787 27.2253 4.54987 27.268L4.44187 27.004C4.53521 26.9533 4.64587 26.9107 4.77387 26.876C4.90187 26.8387 5.03521 26.82 5.17387 26.82ZM5.27787 27.964C5.01121 27.9747 4.82587 28.0173 4.72187 28.092C4.62054 28.1667 4.56987 28.272 4.56987 28.408C4.56987 28.528 4.60587 28.616 4.67787 28.672C4.75254 28.728 4.84721 28.756 4.96187 28.756C5.14321 28.756 5.29387 28.7067 5.41387 28.608C5.53387 28.5067 5.59387 28.352 5.59387 28.144V27.952L5.27787 27.964ZM7.86806 26.856H8.24406L8.70806 28.076C8.73473 28.148 8.75873 28.2173 8.78006 28.284C8.80406 28.3507 8.8254 28.416 8.84406 28.48C8.86273 28.5413 8.8774 28.6013 8.88806 28.66H8.90406C8.92006 28.5933 8.9454 28.5067 8.98006 28.4C9.01473 28.2907 9.05073 28.1813 9.08806 28.072L9.52406 26.856H9.90406L8.98006 29.296C8.9294 29.4293 8.8694 29.5453 8.80006 29.644C8.7334 29.7453 8.65073 29.8227 8.55206 29.876C8.45606 29.932 8.33873 29.96 8.20006 29.96C8.13606 29.96 8.08006 29.956 8.03206 29.948C7.98406 29.9427 7.94273 29.936 7.90806 29.928V29.648C7.9374 29.6533 7.97206 29.6587 8.01206 29.664C8.05473 29.6693 8.09873 29.672 8.14406 29.672C8.22673 29.672 8.2974 29.656 8.35606 29.624C8.4174 29.5947 8.4694 29.5507 8.51206 29.492C8.55473 29.436 8.59073 29.3693 8.62006 29.292L8.73206 29.008L7.86806 26.856ZM14.1951 26.816C14.4378 26.816 14.6191 26.8787 14.7391 27.004C14.8591 27.1267 14.9191 27.3267 14.9191 27.604V29H14.5711V27.62C14.5711 27.452 14.5351 27.3253 14.4631 27.24C14.3938 27.1547 14.2845 27.112 14.1351 27.112C13.9271 27.112 13.7778 27.172 13.6871 27.292C13.5991 27.412 13.5551 27.5867 13.5551 27.816V29H13.2071V27.62C13.2071 27.508 13.1911 27.4147 13.1591 27.34C13.1271 27.2627 13.0791 27.2053 13.0151 27.168C12.9511 27.1307 12.8685 27.112 12.7671 27.112C12.6231 27.112 12.5098 27.1427 12.4271 27.204C12.3445 27.2627 12.2845 27.3493 12.2471 27.464C12.2125 27.5787 12.1951 27.72 12.1951 27.888V29H11.8431V26.856H12.1271L12.1791 27.148H12.1991C12.2445 27.0733 12.2991 27.012 12.3631 26.964C12.4298 26.9133 12.5031 26.876 12.5831 26.852C12.6631 26.828 12.7458 26.816 12.8311 26.816C12.9965 26.816 13.1338 26.8453 13.2431 26.904C13.3551 26.9627 13.4365 27.0533 13.4871 27.176H13.5071C13.5791 27.0533 13.6765 26.9627 13.7991 26.904C13.9245 26.8453 14.0565 26.816 14.1951 26.816ZM18.0094 26.816C18.1934 26.816 18.3507 26.856 18.4814 26.936C18.6147 27.016 18.7161 27.1293 18.7854 27.276C18.8574 27.42 18.8934 27.5893 18.8934 27.784V27.996H17.4254C17.4307 28.2387 17.4921 28.424 17.6094 28.552C17.7294 28.6773 17.8961 28.74 18.1094 28.74C18.2454 28.74 18.3654 28.728 18.4694 28.704C18.5761 28.6773 18.6854 28.64 18.7974 28.592V28.9C18.6881 28.948 18.5801 28.9827 18.4734 29.004C18.3667 29.028 18.2401 29.04 18.0934 29.04C17.8907 29.04 17.7107 28.9987 17.5534 28.916C17.3987 28.8333 17.2774 28.7107 17.1894 28.548C17.1041 28.3827 17.0614 28.1813 17.0614 27.944C17.0614 27.7093 17.1001 27.508 17.1774 27.34C17.2574 27.172 17.3681 27.0427 17.5094 26.952C17.6534 26.8613 17.8201 26.816 18.0094 26.816ZM18.0054 27.104C17.8374 27.104 17.7041 27.1587 17.6054 27.268C17.5094 27.3747 17.4521 27.524 17.4334 27.716H18.5254C18.5254 27.5933 18.5067 27.4867 18.4694 27.396C18.4321 27.3053 18.3747 27.2347 18.2974 27.184C18.2227 27.1307 18.1254 27.104 18.0054 27.104ZM22.0712 26.816C22.3272 26.816 22.5206 26.8787 22.6512 27.004C22.7819 27.1267 22.8472 27.3267 22.8472 27.604V29H22.4992V27.628C22.4992 27.4547 22.4606 27.3253 22.3832 27.24C22.3059 27.1547 22.1846 27.112 22.0192 27.112C21.7819 27.112 21.6179 27.1787 21.5272 27.312C21.4366 27.4453 21.3912 27.6373 21.3912 27.888V29H21.0392V26.856H21.3232L21.3752 27.148H21.3952C21.4432 27.0733 21.5019 27.012 21.5712 26.964C21.6432 26.9133 21.7219 26.876 21.8072 26.852C21.8926 26.828 21.9806 26.816 22.0712 26.816ZM25.8279 28.752C25.8812 28.752 25.9359 28.748 25.9919 28.74C26.0479 28.7293 26.0932 28.7187 26.1279 28.708V28.976C26.0905 28.9947 26.0372 29.0093 25.9679 29.02C25.8985 29.0333 25.8319 29.04 25.7679 29.04C25.6559 29.04 25.5519 29.0213 25.4559 28.984C25.3625 28.944 25.2865 28.876 25.2279 28.78C25.1692 28.684 25.1399 28.5493 25.1399 28.376V27.128H24.8359V26.96L25.1439 26.82L25.2839 26.364H25.4919V26.856H26.1119V27.128H25.4919V28.368C25.4919 28.4987 25.5225 28.596 25.5839 28.66C25.6479 28.7213 25.7292 28.752 25.8279 28.752ZM31.0857 26.856V29H30.7337V26.856H31.0857ZM30.9137 26.052C30.9671 26.052 31.0137 26.0707 31.0537 26.108C31.0964 26.1427 31.1177 26.1987 31.1177 26.276C31.1177 26.3507 31.0964 26.4067 31.0537 26.444C31.0137 26.4813 30.9671 26.5 30.9137 26.5C30.8551 26.5 30.8057 26.4813 30.7657 26.444C30.7257 26.4067 30.7057 26.3507 30.7057 26.276C30.7057 26.1987 30.7257 26.1427 30.7657 26.108C30.8057 26.0707 30.8551 26.052 30.9137 26.052ZM34.397 26.816C34.653 26.816 34.8463 26.8787 34.977 27.004C35.1077 27.1267 35.173 27.3267 35.173 27.604V29H34.825V27.628C34.825 27.4547 34.7863 27.3253 34.709 27.24C34.6317 27.1547 34.5103 27.112 34.345 27.112C34.1077 27.112 33.9437 27.1787 33.853 27.312C33.7623 27.4453 33.717 27.6373 33.717 27.888V29H33.365V26.856H33.649L33.701 27.148H33.721C33.769 27.0733 33.8277 27.012 33.897 26.964C33.969 26.9133 34.0477 26.876 34.133 26.852C34.2183 26.828 34.3063 26.816 34.397 26.816ZM42.3662 26.816C42.6089 26.816 42.7902 26.8787 42.9102 27.004C43.0302 27.1267 43.0902 27.3267 43.0902 27.604V29H42.7422V27.62C42.7422 27.452 42.7062 27.3253 42.6342 27.24C42.5649 27.1547 42.4556 27.112 42.3062 27.112C42.0982 27.112 41.9489 27.172 41.8582 27.292C41.7702 27.412 41.7262 27.5867 41.7262 27.816V29H41.3782V27.62C41.3782 27.508 41.3622 27.4147 41.3302 27.34C41.2982 27.2627 41.2502 27.2053 41.1862 27.168C41.1222 27.1307 41.0396 27.112 40.9382 27.112C40.7942 27.112 40.6809 27.1427 40.5982 27.204C40.5156 27.2627 40.4556 27.3493 40.4182 27.464C40.3836 27.5787 40.3662 27.72 40.3662 27.888V29H40.0142V26.856H40.2982L40.3502 27.148H40.3702C40.4156 27.0733 40.4702 27.012 40.5342 26.964C40.6009 26.9133 40.6742 26.876 40.7542 26.852C40.8342 26.828 40.9169 26.816 41.0022 26.816C41.1676 26.816 41.3049 26.8453 41.4142 26.904C41.5262 26.9627 41.6076 27.0533 41.6582 27.176H41.6782C41.7502 27.0533 41.8476 26.9627 41.9702 26.904C42.0956 26.8453 42.2276 26.816 42.3662 26.816ZM47.2165 27.924C47.2165 28.1027 47.1925 28.2613 47.1445 28.4C47.0992 28.536 47.0325 28.652 46.9445 28.748C46.8592 28.844 46.7538 28.9173 46.6285 28.968C46.5058 29.016 46.3685 29.04 46.2165 29.04C46.0752 29.04 45.9445 29.016 45.8245 28.968C45.7045 28.9173 45.6005 28.844 45.5125 28.748C45.4245 28.652 45.3552 28.536 45.3045 28.4C45.2565 28.2613 45.2325 28.1027 45.2325 27.924C45.2325 27.6867 45.2725 27.4867 45.3525 27.324C45.4325 27.1587 45.5472 27.0333 45.6965 26.948C45.8458 26.86 46.0232 26.816 46.2285 26.816C46.4232 26.816 46.5938 26.86 46.7405 26.948C46.8898 27.0333 47.0058 27.1587 47.0885 27.324C47.1738 27.4867 47.2165 27.6867 47.2165 27.924ZM45.5965 27.924C45.5965 28.092 45.6178 28.2387 45.6605 28.364C45.7058 28.4867 45.7752 28.5813 45.8685 28.648C45.9618 28.7147 46.0805 28.748 46.2245 28.748C46.3685 28.748 46.4872 28.7147 46.5805 28.648C46.6738 28.5813 46.7418 28.4867 46.7845 28.364C46.8298 28.2387 46.8525 28.092 46.8525 27.924C46.8525 27.7533 46.8298 27.608 46.7845 27.488C46.7392 27.368 46.6698 27.276 46.5765 27.212C46.4858 27.1453 46.3672 27.112 46.2205 27.112C46.0018 27.112 45.8432 27.184 45.7445 27.328C45.6458 27.472 45.5965 27.6707 45.5965 27.924ZM51.7264 26.816C51.969 26.816 52.1504 26.8787 52.2704 27.004C52.3904 27.1267 52.4504 27.3267 52.4504 27.604V29H52.1024V27.62C52.1024 27.452 52.0664 27.3253 51.9944 27.24C51.925 27.1547 51.8157 27.112 51.6664 27.112C51.4584 27.112 51.309 27.172 51.2184 27.292C51.1304 27.412 51.0864 27.5867 51.0864 27.816V29H50.7384V27.62C50.7384 27.508 50.7224 27.4147 50.6904 27.34C50.6584 27.2627 50.6104 27.2053 50.5464 27.168C50.4824 27.1307 50.3997 27.112 50.2984 27.112C50.1544 27.112 50.041 27.1427 49.9584 27.204C49.8757 27.2627 49.8157 27.3493 49.7784 27.464C49.7437 27.5787 49.7264 27.72 49.7264 27.888V29H49.3744V26.856H49.6584L49.7104 27.148H49.7304C49.7757 27.0733 49.8304 27.012 49.8944 26.964C49.961 26.9133 50.0344 26.876 50.1144 26.852C50.1944 26.828 50.277 26.816 50.3624 26.816C50.5277 26.816 50.665 26.8453 50.7744 26.904C50.8864 26.9627 50.9677 27.0533 51.0184 27.176H51.0384C51.1104 27.0533 51.2077 26.9627 51.3304 26.904C51.4557 26.8453 51.5877 26.816 51.7264 26.816ZM55.5407 26.816C55.7247 26.816 55.882 26.856 56.0127 26.936C56.146 27.016 56.2473 27.1293 56.3167 27.276C56.3887 27.42 56.4247 27.5893 56.4247 27.784V27.996H54.9567C54.962 28.2387 55.0233 28.424 55.1407 28.552C55.2607 28.6773 55.4273 28.74 55.6407 28.74C55.7767 28.74 55.8967 28.728 56.0007 28.704C56.1073 28.6773 56.2167 28.64 56.3287 28.592V28.9C56.2193 28.948 56.1113 28.9827 56.0047 29.004C55.898 29.028 55.7713 29.04 55.6247 29.04C55.422 29.04 55.242 28.9987 55.0847 28.916C54.93 28.8333 54.8087 28.7107 54.7207 28.548C54.6353 28.3827 54.5927 28.1813 54.5927 27.944C54.5927 27.7093 54.6313 27.508 54.7087 27.34C54.7887 27.172 54.8993 27.0427 55.0407 26.952C55.1847 26.8613 55.3513 26.816 55.5407 26.816ZM55.5367 27.104C55.3687 27.104 55.2353 27.1587 55.1367 27.268C55.0407 27.3747 54.9833 27.524 54.9647 27.716H56.0567C56.0567 27.5933 56.038 27.4867 56.0007 27.396C55.9633 27.3053 55.906 27.2347 55.8287 27.184C55.754 27.1307 55.6567 27.104 55.5367 27.104ZM59.6025 26.816C59.8585 26.816 60.0518 26.8787 60.1825 27.004C60.3131 27.1267 60.3785 27.3267 60.3785 27.604V29H60.0305V27.628C60.0305 27.4547 59.9918 27.3253 59.9145 27.24C59.8371 27.1547 59.7158 27.112 59.5505 27.112C59.3131 27.112 59.1491 27.1787 59.0585 27.312C58.9678 27.4453 58.9225 27.6373 58.9225 27.888V29H58.5705V26.856H58.8545L58.9065 27.148H58.9265C58.9745 27.0733 59.0331 27.012 59.1025 26.964C59.1745 26.9133 59.2531 26.876 59.3385 26.852C59.4238 26.828 59.5118 26.816 59.6025 26.816ZM63.3591 28.752C63.4125 28.752 63.4671 28.748 63.5231 28.74C63.5791 28.7293 63.6245 28.7187 63.6591 28.708V28.976C63.6218 28.9947 63.5685 29.0093 63.4991 29.02C63.4298 29.0333 63.3631 29.04 63.2991 29.04C63.1871 29.04 63.0831 29.0213 62.9871 28.984C62.8938 28.944 62.8178 28.876 62.7591 28.78C62.7005 28.684 62.6711 28.5493 62.6711 28.376V27.128H62.3671V26.96L62.6751 26.82L62.8151 26.364H63.0231V26.856H63.6431V27.128H63.0231V28.368C63.0231 28.4987 63.0538 28.596 63.1151 28.66C63.1791 28.7213 63.2605 28.752 63.3591 28.752ZM69.661 28.408C69.661 28.5467 69.6263 28.6627 69.557 28.756C69.4877 28.8493 69.389 28.92 69.261 28.968C69.133 29.016 68.981 29.04 68.805 29.04C68.6557 29.04 68.5263 29.028 68.417 29.004C68.3103 28.98 68.2157 28.9467 68.133 28.904V28.584C68.2183 28.6267 68.321 28.6667 68.441 28.704C68.5637 28.7387 68.6877 28.756 68.813 28.756C68.9917 28.756 69.121 28.728 69.201 28.672C69.281 28.6133 69.321 28.536 69.321 28.44C69.321 28.3867 69.3063 28.3387 69.277 28.296C69.2477 28.2533 69.1943 28.2107 69.117 28.168C69.0423 28.1253 68.9343 28.0773 68.793 28.024C68.6543 27.9707 68.5357 27.9173 68.437 27.864C68.3383 27.8107 68.2623 27.7467 68.209 27.672C68.1557 27.5973 68.129 27.5013 68.129 27.384C68.129 27.2027 68.2023 27.0627 68.349 26.964C68.4983 26.8653 68.693 26.816 68.933 26.816C69.0637 26.816 69.185 26.8293 69.297 26.856C69.4117 26.88 69.5183 26.9147 69.617 26.96L69.497 27.24C69.4383 27.2133 69.3757 27.1907 69.309 27.172C69.245 27.1507 69.1797 27.1347 69.113 27.124C69.0463 27.1107 68.9783 27.104 68.909 27.104C68.765 27.104 68.6543 27.128 68.577 27.176C68.5023 27.2213 68.465 27.284 68.465 27.364C68.465 27.4227 68.4823 27.4733 68.517 27.516C68.5517 27.556 68.609 27.596 68.689 27.636C68.7717 27.6733 68.881 27.7187 69.017 27.772C69.153 27.8227 69.269 27.8747 69.365 27.928C69.461 27.9813 69.5343 28.0467 69.585 28.124C69.6357 28.1987 69.661 28.2933 69.661 28.408ZM71.4431 26.856H71.8191L72.2831 28.076C72.3097 28.148 72.3337 28.2173 72.3551 28.284C72.3791 28.3507 72.4004 28.416 72.4191 28.48C72.4377 28.5413 72.4524 28.6013 72.4631 28.66H72.4791C72.4951 28.5933 72.5204 28.5067 72.5551 28.4C72.5897 28.2907 72.6257 28.1813 72.6631 28.072L73.0991 26.856H73.4791L72.5551 29.296C72.5044 29.4293 72.4444 29.5453 72.3751 29.644C72.3084 29.7453 72.2257 29.8227 72.1271 29.876C72.0311 29.932 71.9137 29.96 71.7751 29.96C71.7111 29.96 71.6551 29.956 71.6071 29.948C71.5591 29.9427 71.5177 29.936 71.4831 29.928V29.648C71.5124 29.6533 71.5471 29.6587 71.5871 29.664C71.6297 29.6693 71.6737 29.672 71.7191 29.672C71.8017 29.672 71.8724 29.656 71.9311 29.624C71.9924 29.5947 72.0444 29.5507 72.0871 29.492C72.1297 29.436 72.1657 29.3693 72.1951 29.292L72.3071 29.008L71.4431 26.856ZM76.8141 28.408C76.8141 28.5467 76.7795 28.6627 76.7101 28.756C76.6408 28.8493 76.5421 28.92 76.4141 28.968C76.2861 29.016 76.1341 29.04 75.9581 29.04C75.8088 29.04 75.6795 29.028 75.5701 29.004C75.4635 28.98 75.3688 28.9467 75.2861 28.904V28.584C75.3715 28.6267 75.4741 28.6667 75.5941 28.704C75.7168 28.7387 75.8408 28.756 75.9661 28.756C76.1448 28.756 76.2741 28.728 76.3541 28.672C76.4341 28.6133 76.4741 28.536 76.4741 28.44C76.4741 28.3867 76.4595 28.3387 76.4301 28.296C76.4008 28.2533 76.3475 28.2107 76.2701 28.168C76.1955 28.1253 76.0875 28.0773 75.9461 28.024C75.8075 27.9707 75.6888 27.9173 75.5901 27.864C75.4915 27.8107 75.4155 27.7467 75.3621 27.672C75.3088 27.5973 75.2821 27.5013 75.2821 27.384C75.2821 27.2027 75.3555 27.0627 75.5021 26.964C75.6515 26.8653 75.8461 26.816 76.0861 26.816C76.2168 26.816 76.3381 26.8293 76.4501 26.856C76.5648 26.88 76.6715 26.9147 76.7701 26.96L76.6501 27.24C76.5915 27.2133 76.5288 27.1907 76.4621 27.172C76.3981 27.1507 76.3328 27.1347 76.2661 27.124C76.1995 27.1107 76.1315 27.104 76.0621 27.104C75.9181 27.104 75.8075 27.128 75.7301 27.176C75.6555 27.2213 75.6181 27.284 75.6181 27.364C75.6181 27.4227 75.6355 27.4733 75.6701 27.516C75.7048 27.556 75.7621 27.596 75.8421 27.636C75.9248 27.6733 76.0341 27.7187 76.1701 27.772C76.3061 27.8227 76.4221 27.8747 76.5181 27.928C76.6141 27.9813 76.6875 28.0467 76.7381 28.124C76.7888 28.1987 76.8141 28.2933 76.8141 28.408ZM79.6482 28.752C79.7015 28.752 79.7562 28.748 79.8122 28.74C79.8682 28.7293 79.9135 28.7187 79.9482 28.708V28.976C79.9109 28.9947 79.8575 29.0093 79.7882 29.02C79.7189 29.0333 79.6522 29.04 79.5882 29.04C79.4762 29.04 79.3722 29.0213 79.2762 28.984C79.1829 28.944 79.1069 28.876 79.0482 28.78C78.9895 28.684 78.9602 28.5493 78.9602 28.376V27.128H78.6562V26.96L78.9642 26.82L79.1042 26.364H79.3122V26.856H79.9322V27.128H79.3122V28.368C79.3122 28.4987 79.3429 28.596 79.4042 28.66C79.4682 28.7213 79.5495 28.752 79.6482 28.752ZM82.8055 26.816C82.9895 26.816 83.1468 26.856 83.2775 26.936C83.4108 27.016 83.5122 27.1293 83.5815 27.276C83.6535 27.42 83.6895 27.5893 83.6895 27.784V27.996H82.2215C82.2268 28.2387 82.2882 28.424 82.4055 28.552C82.5255 28.6773 82.6922 28.74 82.9055 28.74C83.0415 28.74 83.1615 28.728 83.2655 28.704C83.3722 28.6773 83.4815 28.64 83.5935 28.592V28.9C83.4842 28.948 83.3762 28.9827 83.2695 29.004C83.1628 29.028 83.0362 29.04 82.8895 29.04C82.6868 29.04 82.5068 28.9987 82.3495 28.916C82.1948 28.8333 82.0735 28.7107 81.9855 28.548C81.9002 28.3827 81.8575 28.1813 81.8575 27.944C81.8575 27.7093 81.8962 27.508 81.9735 27.34C82.0535 27.172 82.1642 27.0427 82.3055 26.952C82.4495 26.8613 82.6162 26.816 82.8055 26.816ZM82.8015 27.104C82.6335 27.104 82.5002 27.1587 82.4015 27.268C82.3055 27.3747 82.2482 27.524 82.2295 27.716H83.3215C83.3215 27.5933 83.3028 27.4867 83.2655 27.396C83.2282 27.3053 83.1708 27.2347 83.0935 27.184C83.0188 27.1307 82.9215 27.104 82.8015 27.104ZM88.1873 26.816C88.43 26.816 88.6113 26.8787 88.7313 27.004C88.8513 27.1267 88.9113 27.3267 88.9113 27.604V29H88.5633V27.62C88.5633 27.452 88.5273 27.3253 88.4553 27.24C88.386 27.1547 88.2766 27.112 88.1273 27.112C87.9193 27.112 87.77 27.172 87.6793 27.292C87.5913 27.412 87.5473 27.5867 87.5473 27.816V29H87.1993V27.62C87.1993 27.508 87.1833 27.4147 87.1513 27.34C87.1193 27.2627 87.0713 27.2053 87.0073 27.168C86.9433 27.1307 86.8606 27.112 86.7593 27.112C86.6153 27.112 86.502 27.1427 86.4193 27.204C86.3366 27.2627 86.2766 27.3493 86.2393 27.464C86.2046 27.5787 86.1873 27.72 86.1873 27.888V29H85.8353V26.856H86.1193L86.1713 27.148H86.1913C86.2366 27.0733 86.2913 27.012 86.3553 26.964C86.422 26.9133 86.4953 26.876 86.5753 26.852C86.6553 26.828 86.738 26.816 86.8233 26.816C86.9886 26.816 87.126 26.8453 87.2353 26.904C87.3473 26.9627 87.4286 27.0533 87.4793 27.176H87.4993C87.5713 27.0533 87.6686 26.9627 87.7913 26.904C87.9166 26.8453 88.0486 26.816 88.1873 26.816Z" fill="#0C99FF"/>
</svg>
