<svg width="55" height="55" viewBox="0 0 55 55" fill="none" xmlns="http://www.w3.org/2000/svg">
<path d="M51.2681 37.5186C51.2079 37.3825 51.1477 37.2313 51.0875 37.0952H41.4268C41.4869 37.2464 41.5321 37.3976 41.5923 37.5337L51.2681 37.5186Z" fill="#0C99FF"/>
<path d="M40.8252 35.5678C40.8703 35.6736 40.9155 35.7644 40.9456 35.8702L50.5461 35.8551C50.501 35.7644 50.4558 35.6585 50.4107 35.5678H40.8252Z" fill="#0C99FF"/>
<path d="M51.7801 38.7586H41.9839C42.1344 39.2425 42.2096 39.5147 42.2096 39.5147H52.081C52.081 39.5147 51.9757 39.2425 51.7801 38.7586Z" fill="#0C99FF"/>
<path d="M40.3134 34.3731L49.8538 34.3277C46.453 27.0993 39.5911 14.8502 31.9468 14.6082C21.0973 14.2604 14.7471 20.8235 14.7471 20.8235C14.7471 20.8235 22.9331 15.3794 31.1944 22.0938C35.784 25.8139 38.6732 30.774 40.3285 34.4487L40.3134 34.3731Z" fill="#0C99FF"/>
<path d="M13.8743 20.022C13.8291 19.9161 13.784 19.8254 13.7539 19.7195L4.15332 19.7347C4.19846 19.8254 4.24361 19.9313 4.28875 20.022H13.8743Z" fill="#0C99FF"/>
<path d="M3.41602 18.0712C3.47621 18.2073 3.5364 18.3585 3.59659 18.4946H13.2724C13.2122 18.3434 13.167 18.1922 13.1068 18.0561L3.41602 18.0712Z" fill="#0C99FF"/>
<path d="M12.7003 16.8312C12.5649 16.4077 12.5047 16.1809 12.5047 16.1809H2.6333C2.6333 16.1809 2.72359 16.4229 2.88911 16.8312H12.7003Z" fill="#0C99FF"/>
<path d="M23.5197 33.4355C18.9452 29.7608 16.056 24.8611 14.4007 21.2166L4.86035 21.262C8.24612 28.4149 15.1381 40.6035 22.7824 40.8455C33.6168 41.1933 39.6511 34.4789 39.6511 34.4789C39.6511 34.4789 31.781 40.0742 23.5197 33.4355Z" fill="#0C99FF"/>
<path d="M0 47.0305H9.26949C9.26949 47.0305 11.9781 34.3429 19.7428 27.0236C27.5075 19.7044 33.933 27.0085 33.933 27.0085C33.933 27.0085 29.1026 19.4625 18.9302 19.8405C8.75787 20.2186 0 47.0305 0 47.0305Z" fill="#0C99FF"/>
<path d="M54.7141 7.45532H45.4446C45.4446 7.45532 42.721 20.2186 34.9563 27.7646C27.1916 35.3107 20.6006 28.2637 20.6006 28.2637C20.6006 28.2637 25.5965 35.8551 35.7839 35.4619C45.9713 35.0687 54.7141 7.45532 54.7141 7.45532Z" fill="#0C99FF"/>
</svg>
