<svg width="17" height="22" viewBox="0 0 17 22" fill="none" xmlns="http://www.w3.org/2000/svg">
<path d="M6.38501 20.9975V12.9201C6.38501 12.41 6.58763 11.9208 6.9483 11.5602C7.30897 11.1995 7.79815 10.9969 8.30822 10.9969V10.9969C8.81828 10.9969 9.30746 11.1995 9.66813 11.5602C10.0288 11.9208 10.2314 12.41 10.2314 12.9201V17.1511H13.3086C14.1247 17.1511 14.9073 17.4753 15.4844 18.0524C16.0615 18.6295 16.3857 19.4121 16.3857 20.2282V20.9975" stroke="#AFAFAF" stroke-linecap="round" stroke-linejoin="round"/>
<path d="M3.13861 13.4739C2.11708 12.4516 1.42158 11.1494 1.14003 9.73195C0.858483 8.31445 1.00353 6.84529 1.55682 5.51021C2.11012 4.17513 3.04683 3.03407 4.24854 2.23127C5.45025 1.42848 6.86299 1 8.30818 1C9.75338 1 11.1661 1.42848 12.3678 2.23127C13.5695 3.03407 14.5062 4.17513 15.0595 5.51021C15.6128 6.84529 15.7579 8.31445 15.4763 9.73195C15.1948 11.1494 14.4993 12.4516 13.4778 13.4739" stroke="#AFAFAF" stroke-linecap="round" stroke-linejoin="round"/>
</svg>
