<svg width="16" height="7" viewBox="0 0 16 7" fill="none" xmlns="http://www.w3.org/2000/svg">
<path d="M0.704545 6V0.181818H2.67045C3.12689 0.181818 3.5 0.264204 3.78977 0.428977C4.08144 0.591856 4.29735 0.8125 4.4375 1.09091C4.57765 1.36932 4.64773 1.67992 4.64773 2.02273C4.64773 2.36553 4.57765 2.67708 4.4375 2.95739C4.29924 3.23769 4.08523 3.46117 3.79545 3.62784C3.50568 3.79261 3.13447 3.875 2.68182 3.875H1.27273V3.25H2.65909C2.97159 3.25 3.22254 3.19602 3.41193 3.08807C3.60133 2.98011 3.73864 2.83428 3.82386 2.65057C3.91098 2.46496 3.95455 2.25568 3.95455 2.02273C3.95455 1.78977 3.91098 1.58144 3.82386 1.39773C3.73864 1.21402 3.60038 1.07008 3.40909 0.965909C3.2178 0.859848 2.96402 0.806818 2.64773 0.806818H1.40909V6H0.704545ZM10.6918 3.09091C10.6918 3.70455 10.581 4.23485 10.3594 4.68182C10.1378 5.12879 9.83381 5.47348 9.44744 5.71591C9.06108 5.95833 8.61979 6.07955 8.12358 6.07955C7.62737 6.07955 7.18608 5.95833 6.79972 5.71591C6.41335 5.47348 6.10938 5.12879 5.88778 4.68182C5.66619 4.23485 5.5554 3.70455 5.5554 3.09091C5.5554 2.47727 5.66619 1.94697 5.88778 1.5C6.10938 1.05303 6.41335 0.708333 6.79972 0.465909C7.18608 0.223485 7.62737 0.102273 8.12358 0.102273C8.61979 0.102273 9.06108 0.223485 9.44744 0.465909C9.83381 0.708333 10.1378 1.05303 10.3594 1.5C10.581 1.94697 10.6918 2.47727 10.6918 3.09091ZM10.0099 3.09091C10.0099 2.58712 9.92566 2.16193 9.7571 1.81534C9.59044 1.46875 9.36411 1.20644 9.07812 1.02841C8.79403 0.850379 8.47585 0.761364 8.12358 0.761364C7.77131 0.761364 7.45218 0.850379 7.16619 1.02841C6.8821 1.20644 6.65578 1.46875 6.48722 1.81534C6.32055 2.16193 6.23722 2.58712 6.23722 3.09091C6.23722 3.5947 6.32055 4.01989 6.48722 4.36648C6.65578 4.71307 6.8821 4.97538 7.16619 5.15341C7.45218 5.33144 7.77131 5.42045 8.12358 5.42045C8.47585 5.42045 8.79403 5.33144 9.07812 5.15341C9.36411 4.97538 9.59044 4.71307 9.7571 4.36648C9.92566 4.01989 10.0099 3.5947 10.0099 3.09091ZM11.8764 6V0.181818H12.581V5.375H15.2855V6H11.8764Z" fill="#0C99FF"/>
</svg>
